{"glyphs":{"0":{"ha":765,"x_min":61,"x_max":707,"o":"m 549 164 l 549 164 q 417 91 490 104 q 277 102 344 78 q 156 183 210 126 q 79 321 101 240 l 79 321 q 62 471 63 383 q 77 646 61 558 q 126 810 93 733 q 208 929 158 886 l 208 929 q 319 988 261 974 q 433 992 376 1003 q 539 950 489 982 q 626 870 589 918 q 685 760 664 822 q 707 629 707 699 l 707 629 q 698 504 707 568 q 670 379 689 440 q 622 263 651 318 q 549 164 592 207 z m 310 297 l 310 297 q 341 281 324 283 q 375 283 358 278 q 407 301 392 289 q 433 331 422 314 l 433 331 q 494 474 475 396 q 513 629 513 551 l 513 629 q 491 735 513 693 q 440 794 469 778 q 376 798 410 810 q 319 743 343 786 l 319 743 q 274 635 293 696 q 250 511 254 574 q 259 392 246 449 q 310 297 272 336 z "},"1":{"ha":503,"x_min":36,"x_max":440,"o":"m 388 124 l 388 124 q 377 68 392 92 q 339 32 363 44 q 285 20 315 19 q 231 40 256 21 l 231 40 q 207 68 217 51 q 194 103 197 85 l 194 103 q 186 282 183 190 l 186 282 q 195 414 188 349 q 210 546 203 479 l 210 546 q 220 632 214 590 q 232 718 226 674 l 232 718 q 193 699 213 707 q 153 685 174 690 l 153 685 q 103 687 129 678 q 60 714 76 696 l 60 714 q 42 742 49 725 q 36 774 36 758 l 36 774 q 40 800 36 788 q 51 824 44 813 l 51 824 q 74 847 57 833 q 103 864 92 861 l 103 864 q 114 867 106 865 q 125 869 122 868 l 125 869 q 197 915 164 889 q 267 965 231 942 l 267 965 q 321 986 292 983 q 374 977 350 989 q 415 942 399 965 q 435 889 432 919 l 435 889 q 425 698 440 793 q 400 507 410 603 l 400 507 q 390 403 396 454 q 381 300 383 353 l 381 300 q 381 212 379 256 q 388 124 382 168 z "},"2":{"ha":711,"x_min":46,"x_max":661,"o":"m 172 36 l 172 36 q 120 40 144 32 q 79 65 96 49 q 54 106 63 82 q 53 156 46 129 l 53 156 q 64 192 57 175 q 79 226 71 210 l 79 226 q 159 347 110 292 q 263 449 208 401 l 263 449 q 348 519 304 485 q 424 597 392 553 l 424 597 q 449 645 440 618 q 456 700 458 672 l 456 700 q 430 760 451 736 q 379 794 408 785 q 317 799 350 804 q 256 772 283 794 l 256 772 q 242 761 253 769 q 226 751 231 753 l 226 751 q 201 741 214 744 q 174 739 188 738 l 174 739 q 132 752 150 740 q 101 781 114 764 q 85 819 89 797 q 88 863 81 840 l 88 863 q 125 917 96 892 l 125 917 q 228 976 169 954 q 346 996 288 997 l 346 996 q 459 973 406 994 q 556 911 513 951 l 556 911 q 614 833 590 878 q 646 742 638 789 l 646 742 q 626 563 661 649 l 626 563 q 594 501 613 531 q 551 444 575 471 l 551 444 q 444 346 501 390 q 333 249 386 301 l 333 249 q 444 249 389 250 q 553 236 499 247 l 553 236 q 612 202 592 229 q 633 143 632 175 q 616 83 635 111 q 558 46 597 54 l 558 46 q 513 46 535 42 l 513 46 q 342 54 428 61 q 172 36 257 47 z "},"3":{"ha":753,"x_min":51,"x_max":700,"o":"m 615 161 l 615 161 q 491 69 561 103 q 347 31 421 36 q 203 51 274 26 q 79 135 133 76 l 79 135 q 56 199 51 164 q 82 259 60 233 q 138 293 104 285 q 204 279 172 301 l 204 279 q 242 249 224 264 q 285 229 261 235 l 285 229 q 342 226 311 222 q 403 244 374 231 q 456 277 432 257 q 493 322 481 297 l 493 322 q 501 379 510 354 q 467 421 492 404 q 407 446 442 438 q 336 453 372 454 l 336 453 q 280 447 308 453 q 226 453 251 442 l 226 453 q 187 487 201 464 q 170 535 172 510 q 178 583 168 560 q 211 621 188 607 l 211 621 q 263 647 228 631 q 333 682 297 663 q 399 722 369 701 q 436 760 428 742 l 436 760 q 437 810 450 790 q 397 835 424 829 q 338 835 371 842 q 278 807 304 828 l 278 807 q 258 788 267 799 q 240 765 249 776 l 240 765 q 190 734 219 739 q 134 741 161 729 q 88 778 107 753 q 72 836 69 803 l 72 836 q 94 893 75 867 q 135 940 113 919 l 135 940 q 280 1025 203 1006 q 426 1028 357 1044 q 549 969 494 1013 q 628 865 604 925 q 638 736 651 806 q 556 600 624 667 l 556 600 q 650 513 615 567 q 692 397 685 458 q 681 274 700 336 q 615 161 663 213 z "},"4":{"ha":767,"x_min":61,"x_max":703,"o":"m 589 46 l 589 46 q 542 49 569 39 q 501 74 514 58 l 501 74 q 474 128 482 97 q 464 190 467 160 l 464 190 q 462 258 463 224 q 464 326 461 292 l 464 326 q 425 313 440 319 l 425 313 q 376 292 400 303 q 326 274 351 282 q 276 260 301 265 q 224 257 250 256 l 224 257 q 180 266 201 258 q 140 285 158 274 l 140 285 q 108 317 121 297 q 89 357 96 336 l 89 357 q 72 440 74 397 q 68 526 69 483 l 68 526 q 64 650 65 589 q 61 774 63 711 l 61 774 q 75 826 61 803 q 110 863 89 850 q 159 875 132 875 q 211 860 186 875 l 211 860 q 256 779 253 831 l 256 779 q 258 653 257 715 q 263 526 260 590 l 263 526 q 263 493 263 510 q 265 460 263 476 l 265 460 q 316 478 292 468 q 365 499 340 489 l 365 499 l 478 536 q 492 681 485 608 q 507 826 500 753 l 507 826 q 532 886 510 863 q 583 917 554 910 q 641 913 611 924 q 689 869 671 901 l 689 869 q 701 828 700 850 q 700 785 703 806 l 700 785 q 699 779 700 782 q 697 774 697 776 l 697 774 q 679 597 689 685 q 663 421 669 508 l 663 421 q 656 306 658 363 q 660 192 654 250 l 660 192 q 663 175 660 183 q 668 158 665 167 l 668 158 q 664 111 674 139 q 639 71 654 83 l 639 71 q 589 46 619 53 z "},"5":{"ha":711,"x_min":68,"x_max":665,"o":"m 494 88 l 494 88 q 378 41 440 56 q 253 28 315 26 l 253 28 q 188 53 213 29 q 158 107 164 76 q 166 167 151 138 q 218 211 181 197 l 218 211 q 264 217 238 219 l 264 217 q 328 224 296 217 q 390 246 361 232 l 390 246 q 426 269 410 256 q 454 300 443 282 l 454 300 q 464 328 463 313 q 460 357 465 343 q 445 381 456 371 q 421 396 435 392 l 421 396 q 391 397 406 399 q 361 393 376 396 l 361 393 q 244 325 293 378 l 244 325 q 194 294 222 300 q 140 298 165 289 q 95 330 114 307 q 75 386 76 353 l 75 386 q 74 467 72 426 q 76 547 75 507 l 76 547 q 81 695 79 622 q 74 842 82 768 l 74 842 q 70 867 72 854 q 69 890 68 879 l 69 890 q 78 928 72 910 q 99 961 85 947 l 99 961 q 130 985 113 976 q 167 997 147 993 l 167 997 q 224 1002 194 1003 q 281 1004 253 1001 l 281 1004 q 346 1008 313 1007 q 411 1011 379 1008 l 411 1011 q 446 1015 429 1013 q 481 1021 463 1018 l 481 1021 q 503 1019 490 1022 q 528 1011 515 1017 q 550 997 540 1006 q 565 981 560 989 l 565 981 q 576 957 572 969 q 582 931 581 944 l 582 931 q 572 885 585 911 q 542 850 560 860 l 542 850 q 492 831 518 836 q 439 824 465 826 l 439 824 q 365 819 401 819 q 292 814 328 818 l 292 814 q 272 813 278 814 l 272 813 q 274 688 275 750 q 271 564 274 626 l 271 564 q 360 585 314 579 q 450 583 406 590 l 450 583 q 534 553 494 576 q 601 496 574 529 l 601 496 q 635 438 622 469 q 656 375 649 407 l 656 375 q 651 275 665 326 q 608 183 638 224 l 608 183 q 494 88 561 122 z "},"6":{"ha":690,"x_min":53,"x_max":649,"o":"m 472 63 l 472 63 q 345 43 411 43 q 219 64 279 43 l 219 64 q 135 115 171 81 q 79 194 99 149 l 79 194 q 55 299 57 243 q 61 408 53 356 l 61 408 q 101 558 74 485 q 161 701 128 631 l 161 701 q 223 819 190 761 q 292 933 256 876 l 292 933 q 298 942 294 938 q 304 949 301 946 l 304 949 q 345 974 317 964 q 393 978 374 983 l 393 978 q 419 967 407 974 q 443 951 432 961 l 443 951 q 471 892 467 928 q 456 828 475 857 l 456 828 q 398 733 425 782 q 346 636 371 685 l 346 636 q 438 606 393 626 q 519 556 482 586 l 519 556 q 601 459 569 514 q 640 345 632 404 q 633 228 649 286 q 571 124 617 171 l 571 124 q 526 88 551 103 q 472 63 500 72 z m 264 260 l 264 260 q 289 245 272 250 q 324 239 306 240 q 362 238 343 238 q 393 242 381 239 l 393 242 q 417 250 404 244 q 436 265 429 256 l 436 265 q 449 291 446 276 q 449 319 451 306 l 449 319 q 425 374 444 349 q 382 415 406 399 l 382 415 q 329 440 358 432 q 271 450 300 447 l 271 450 q 259 406 265 432 q 250 351 253 379 q 249 299 247 324 q 264 260 251 274 z "},"7":{"ha":722,"x_min":35,"x_max":679,"o":"m 456 61 l 456 61 q 420 20 443 35 q 372 4 397 6 q 322 15 346 3 q 282 51 297 26 l 282 51 q 268 91 271 69 q 267 135 265 113 l 267 135 q 296 354 278 247 l 296 354 l 258 346 q 192 354 224 339 q 147 401 161 369 l 147 401 q 139 444 138 422 q 150 485 140 467 q 176 518 160 504 q 217 536 193 532 l 217 536 q 336 561 274 550 l 336 561 q 367 693 351 628 q 401 825 383 758 l 401 825 q 275 796 338 810 q 147 775 213 782 l 147 775 l 124 775 q 79 792 104 775 q 47 828 54 808 l 47 828 q 38 854 42 840 q 36 883 35 868 l 36 883 q 65 941 40 917 q 125 968 90 965 l 125 968 q 271 993 200 975 q 413 1029 342 1011 l 413 1029 q 466 1042 440 1036 q 518 1050 492 1049 l 518 1050 q 588 1028 557 1053 q 626 967 618 1004 l 626 967 q 627 927 631 947 q 618 888 624 907 l 618 888 q 581 745 599 817 q 544 601 563 674 l 544 601 q 578 606 561 606 l 578 606 q 632 592 606 608 q 669 547 658 575 l 669 547 q 676 492 679 522 l 676 492 q 656 449 674 471 q 618 419 638 426 l 618 419 q 588 412 603 414 q 558 407 574 410 l 558 407 q 529 401 543 404 q 500 396 515 399 l 500 396 q 478 271 488 333 q 464 146 469 208 l 464 146 q 463 138 464 143 q 463 129 461 132 l 463 129 q 464 118 463 126 q 465 107 465 110 l 465 107 q 456 61 467 85 z "},"8":{"ha":775,"x_min":65,"x_max":717,"o":"m 622 478 l 622 478 q 697 367 678 426 q 706 249 717 307 q 658 138 694 190 q 566 47 621 85 q 442 -12 511 8 q 296 -25 372 -32 l 296 -25 q 186 9 232 -19 q 113 81 140 38 q 75 176 85 124 q 74 285 65 229 q 110 396 82 342 q 183 494 138 450 l 183 494 q 94 593 122 535 q 68 715 67 651 q 99 839 69 778 q 186 946 129 900 l 186 946 q 280 1001 229 981 q 382 1029 331 1022 q 483 1028 433 1036 q 574 997 533 1019 q 644 935 615 974 q 685 843 674 897 l 685 843 q 690 751 694 797 q 673 660 685 706 q 647 568 661 614 q 622 478 632 522 z m 274 751 l 274 751 q 268 692 257 717 q 307 647 279 667 q 373 613 335 628 q 447 582 411 597 l 447 582 q 472 666 457 622 q 492 747 486 710 q 487 809 497 785 q 435 836 476 833 l 435 836 q 387 832 411 838 q 341 815 363 826 q 301 788 319 804 q 274 751 283 772 z m 310 168 l 310 168 q 356 172 329 167 q 410 189 382 178 q 462 216 438 200 q 501 251 486 232 q 515 290 515 269 q 496 329 515 310 l 496 329 q 453 360 476 347 q 407 376 431 372 q 360 375 383 381 q 317 353 336 369 l 317 353 q 277 302 293 332 q 258 244 261 272 q 266 194 254 215 q 310 168 278 172 z "},"9":{"ha":740,"x_min":42,"x_max":681,"o":"m 432 0 l 432 0 q 360 -6 392 -21 q 312 41 328 10 q 301 110 296 72 q 344 172 307 147 l 344 172 q 383 219 364 186 q 417 292 401 253 q 445 369 433 331 q 463 429 457 407 l 463 429 q 369 390 418 406 q 268 372 319 374 l 268 372 q 160 401 206 372 q 85 476 114 429 q 49 581 57 522 q 57 700 42 639 l 57 700 q 127 850 78 781 q 241 960 176 919 q 379 1005 306 1000 q 522 963 453 1010 l 522 963 q 588 901 558 938 q 636 823 617 865 q 667 734 656 781 q 679 643 678 688 l 679 643 q 666 474 681 571 q 621 283 651 378 q 543 111 590 189 q 432 0 496 33 z m 247 656 l 247 656 q 240 624 243 640 q 240 595 238 608 q 249 574 242 582 q 271 567 256 565 l 271 567 q 384 605 331 572 q 482 678 438 638 l 482 678 q 465 733 476 706 q 438 781 454 761 q 402 807 422 800 q 357 800 382 814 l 357 800 q 288 740 317 779 q 247 656 258 700 z "},"\u0000":{"ha":0,"x_min":null,"x_max":null,"o":""},"\r":{"ha":556,"x_min":null,"x_max":null,"o":""}," ":{"ha":556,"x_min":null,"x_max":null,"o":""},"\"":{"ha":535,"x_min":39,"x_max":493,"o":"m 215 701 l 215 701 q 178 663 201 675 q 129 650 154 650 q 82 664 104 650 q 49 706 60 678 l 49 706 q 45 758 39 729 q 67 808 51 788 l 67 808 q 73 831 74 815 q 69 854 72 846 l 69 854 q 64 917 56 888 q 93 965 72 946 q 144 987 114 983 q 203 969 174 990 l 203 969 q 244 917 232 949 q 256 847 257 885 q 244 772 256 810 q 215 701 232 733 z m 453 685 l 453 685 q 415 646 439 658 q 367 633 392 633 q 319 647 342 633 q 286 689 297 661 l 286 689 q 281 742 275 713 q 304 792 288 771 l 304 792 q 310 814 310 799 q 306 838 310 829 l 306 838 q 300 900 292 871 q 329 948 308 929 q 380 970 350 967 q 439 953 410 974 l 439 953 q 481 899 468 932 q 492 829 493 867 q 481 753 492 792 q 453 685 469 715 z "},"#":{"ha":1133,"x_min":44,"x_max":1085,"o":"m 840 72 l 840 72 q 825 56 835 64 q 803 43 815 49 q 778 35 790 38 q 756 33 765 32 l 756 33 q 711 47 729 38 l 711 47 q 690 64 700 54 q 674 85 681 74 l 674 85 q 664 109 667 96 q 658 136 661 122 l 658 136 q 650 279 650 207 l 650 279 l 483 265 l 488 199 q 491 188 488 196 q 494 178 494 181 l 494 178 q 491 126 500 150 q 463 85 482 101 q 419 63 444 68 q 365 65 393 57 l 365 65 q 336 82 350 71 q 313 107 322 93 l 313 107 q 299 149 301 126 q 293 193 296 171 l 293 193 q 291 222 292 208 q 290 250 290 236 l 290 250 q 222 244 256 247 q 154 239 188 242 l 154 239 q 94 253 119 236 q 56 296 68 269 q 48 352 44 322 q 76 406 51 382 l 76 406 q 105 424 89 417 q 138 433 121 432 l 138 433 q 211 439 174 436 q 286 444 249 442 l 286 444 q 287 506 286 476 q 289 567 288 536 l 289 567 q 241 563 265 564 q 193 560 217 561 l 193 560 q 128 577 157 557 q 90 631 100 597 l 90 631 q 89 674 85 653 q 106 713 93 696 q 137 740 118 729 q 179 754 156 751 l 179 754 q 241 758 211 757 q 303 763 271 760 l 303 763 q 309 819 306 790 q 317 875 313 847 l 317 875 q 335 924 319 901 l 335 924 q 372 955 350 944 q 417 965 394 965 q 462 952 440 964 q 496 918 483 940 l 496 918 q 506 892 503 906 q 513 864 510 878 l 513 864 q 511 846 514 854 q 507 828 508 838 l 507 828 q 503 802 504 815 q 500 776 503 789 l 500 776 l 663 788 q 668 842 665 815 q 674 896 671 868 l 674 896 q 686 938 676 919 l 686 938 q 731 979 703 967 q 786 988 758 992 q 837 965 814 983 q 867 913 860 946 l 867 913 q 869 890 869 901 q 867 867 868 878 l 867 867 q 863 834 864 850 q 860 801 863 818 l 860 801 q 919 806 889 804 q 978 810 949 807 l 978 810 q 1042 792 1014 813 q 1079 739 1071 772 l 1079 739 q 1081 695 1085 717 q 1065 656 1076 674 q 1033 628 1053 639 q 992 615 1014 617 l 992 615 q 917 610 954 613 q 843 606 881 608 l 843 606 q 843 489 840 547 l 843 489 q 900 494 871 492 q 957 499 929 496 l 957 499 q 1014 487 989 501 q 1053 446 1039 472 l 1053 446 q 1062 419 1060 433 q 1064 390 1064 406 l 1064 390 q 1046 347 1063 371 q 1011 315 1029 322 l 1011 315 q 967 304 989 306 l 967 304 q 906 299 936 301 q 844 294 875 297 l 844 294 q 846 234 844 264 q 850 174 847 204 l 850 174 q 854 159 850 171 q 858 144 858 147 l 858 144 q 856 107 861 125 q 840 72 850 89 z m 649 592 l 485 581 q 483 520 483 550 q 481 461 482 490 l 481 461 l 649 474 q 649 592 646 532 l 649 592 z "},"$":{"ha":738,"x_min":54,"x_max":685,"o":"m 486 -29 l 486 -29 q 440 -68 468 -58 q 383 -70 411 -78 q 335 -40 356 -62 q 314 18 315 -17 l 314 18 q 313 34 314 22 q 313 58 313 46 l 313 58 q 311 89 311 74 l 311 89 q 190 115 250 96 q 83 175 131 135 l 83 175 q 56 228 57 197 q 69 285 54 258 q 111 326 83 311 q 171 329 139 340 l 171 329 q 283 289 228 310 q 400 271 338 268 l 400 271 q 434 273 415 271 q 468 281 453 275 q 494 296 483 286 q 507 321 506 306 l 507 321 q 490 365 508 346 q 442 399 472 383 q 374 428 411 415 q 299 453 336 440 q 228 478 261 465 q 176 506 196 490 l 176 506 q 108 584 131 540 q 81 672 85 628 q 91 759 76 717 q 136 835 106 801 q 212 891 167 869 q 314 915 257 913 l 314 915 q 316 928 315 915 q 317 951 317 942 l 317 951 q 347 1017 318 994 q 408 1040 375 1039 q 469 1022 442 1042 q 500 958 497 1001 l 500 958 q 500 942 500 956 q 500 913 500 929 q 500 885 500 897 q 501 872 500 872 l 501 872 q 556 836 531 858 q 600 788 582 814 q 624 732 618 761 q 617 674 629 703 l 617 674 q 580 631 604 644 q 529 619 556 618 q 479 635 503 619 q 443 681 456 651 l 443 681 q 424 704 438 694 q 392 720 410 714 q 355 729 374 726 q 321 732 336 732 l 321 732 q 269 712 288 731 q 274 667 251 693 l 274 667 q 314 641 283 654 q 379 616 344 628 q 446 594 414 604 q 493 579 478 585 l 493 579 q 597 513 554 554 q 660 424 639 472 q 683 326 682 376 q 664 230 685 275 q 601 150 643 185 q 494 99 558 115 l 494 99 q 499 33 494 67 q 486 -29 503 -1 z "},"%":{"ha":1407,"x_min":40,"x_max":1374,"o":"m 626 78 l 626 78 q 595 34 617 50 q 549 14 574 18 q 499 19 524 10 q 457 51 474 28 l 457 51 q 438 95 442 71 q 443 143 435 119 l 443 143 q 624 585 524 368 q 819 1021 725 801 l 819 1021 q 864 1069 833 1053 q 928 1079 894 1086 l 928 1079 q 967 1061 950 1075 q 994 1028 985 1047 q 1006 988 1004 1010 q 997 944 1007 965 l 997 944 q 902 728 951 836 q 805 513 853 621 q 711 297 757 406 q 626 78 665 189 z m 572 810 l 572 810 q 572 673 590 739 q 508 560 553 607 q 400 490 464 513 q 264 479 336 467 l 264 479 q 149 528 199 490 q 73 619 100 567 q 43 734 46 672 q 68 857 40 796 l 68 857 q 149 958 97 919 q 263 1008 201 997 q 388 1001 325 1019 q 500 935 450 983 l 500 935 q 544 878 526 910 q 572 810 563 846 z m 238 747 l 238 747 q 250 701 236 721 q 285 674 264 682 q 328 669 306 665 q 368 694 351 674 l 368 694 q 386 737 385 714 q 378 778 388 760 q 349 808 368 797 q 304 817 329 819 l 304 817 q 258 794 276 814 q 238 747 240 775 z m 1356 367 l 1356 367 q 1355 230 1374 296 q 1292 117 1336 164 q 1184 47 1249 69 q 1047 36 1119 24 l 1047 36 q 933 85 982 47 q 856 176 883 124 q 826 291 829 229 q 851 414 824 353 l 851 414 q 933 515 881 476 q 1047 565 985 554 q 1171 558 1108 576 q 1283 492 1233 540 l 1283 492 q 1329 435 1311 467 q 1356 367 1347 403 z m 1021 304 l 1021 304 q 1033 258 1019 278 q 1068 231 1047 239 q 1113 226 1089 222 q 1153 251 1136 231 l 1153 251 q 1169 294 1168 271 q 1161 335 1171 317 q 1133 365 1151 354 q 1089 374 1114 376 l 1089 374 q 1042 351 1061 371 q 1021 304 1024 332 z "},"&":{"ha":1008,"x_min":49,"x_max":957,"o":"m 563 3 l 563 3 q 442 -19 504 -17 q 319 -10 379 -21 l 319 -10 q 228 19 272 0 q 147 71 183 39 l 147 71 q 88 148 111 103 q 57 242 64 193 l 57 242 q 66 370 49 304 q 119 489 83 436 l 119 489 q 155 533 135 513 q 197 572 175 553 l 197 572 q 167 657 178 613 q 153 747 156 701 l 153 747 q 167 853 150 800 q 217 947 183 907 l 217 947 q 272 1001 240 978 q 339 1039 304 1024 l 339 1039 q 437 1071 386 1060 q 539 1085 488 1082 l 539 1085 q 625 1081 582 1088 q 707 1054 668 1074 l 707 1054 q 769 1010 742 1038 l 769 1010 q 805 962 792 990 q 824 906 818 933 l 824 906 q 826 844 831 875 q 810 785 821 813 l 810 785 q 731 673 783 722 q 618 592 679 624 l 618 592 q 538 551 579 569 q 457 514 497 533 l 457 514 q 563 398 506 451 q 685 300 619 344 l 685 300 q 704 333 693 313 q 724 374 715 353 q 735 417 732 396 q 731 451 738 438 l 731 451 q 723 470 726 461 q 718 489 719 479 l 718 489 q 729 542 715 517 l 729 542 q 747 563 736 553 q 769 579 758 572 l 769 579 q 790 587 778 585 q 816 589 803 589 q 841 586 829 589 q 861 578 853 583 l 861 578 q 877 567 869 572 q 892 554 885 561 l 892 554 q 923 481 915 522 q 928 401 931 440 l 928 401 q 904 306 922 353 q 860 218 886 258 l 860 218 q 890 209 875 214 q 917 194 904 204 l 917 194 q 952 139 947 171 q 942 81 957 107 q 897 39 928 54 q 829 33 867 24 l 829 33 q 769 51 799 42 q 713 72 740 61 l 713 72 q 563 3 642 31 z m 347 779 l 347 779 q 349 726 344 753 q 363 675 354 700 l 363 675 q 436 710 399 693 q 510 744 474 726 l 510 744 q 548 767 526 753 q 588 799 569 782 q 620 834 607 815 q 632 872 633 853 l 632 872 q 625 884 632 879 q 611 892 618 889 l 611 892 q 563 900 588 900 q 515 897 539 900 l 515 897 q 414 868 461 890 l 414 868 q 388 851 400 861 q 367 829 376 842 l 367 829 q 354 806 358 818 q 347 779 350 793 z m 269 217 l 269 217 q 319 183 288 194 q 387 168 351 171 q 458 170 422 165 q 521 186 493 175 l 521 186 q 402 290 458 235 q 297 407 346 344 l 297 407 q 268 364 281 389 q 251 313 256 339 q 250 261 246 286 q 269 217 254 236 z "},"'":{"ha":299,"x_min":39,"x_max":257,"o":"m 215 693 l 215 693 q 178 654 201 667 q 129 642 154 642 q 82 656 104 643 q 49 697 60 669 l 49 697 q 45 751 39 722 q 67 801 51 781 l 67 801 q 73 823 74 808 q 69 847 72 838 l 69 847 q 64 910 56 881 q 93 958 72 939 q 144 980 114 976 q 203 963 174 983 l 203 963 q 244 909 232 942 q 256 839 257 876 q 244 763 256 801 q 215 693 232 725 z "},"(":{"ha":574,"x_min":63,"x_max":561,"o":"m 485 78 l 485 78 q 540 13 532 51 q 528 -57 547 -26 q 468 -100 508 -87 q 381 -86 428 -112 l 381 -86 q 251 19 307 -46 q 157 162 196 83 q 96 331 118 240 q 68 513 74 421 q 73 695 63 606 q 111 865 83 785 l 111 865 q 162 982 131 924 q 235 1090 193 1040 q 327 1179 276 1140 q 436 1238 378 1218 l 436 1238 q 508 1232 478 1251 q 550 1180 539 1213 q 551 1110 561 1147 q 500 1056 540 1074 l 500 1056 q 381 960 432 1024 q 304 828 331 897 l 304 828 q 258 623 268 733 q 269 408 249 513 q 344 215 290 303 q 485 78 397 126 z "},")":{"ha":533,"x_min":-29,"x_max":471,"o":"m 151 -86 l 151 -86 q 65 -100 104 -112 q 6 -57 25 -87 q -7 13 -14 -26 q 47 78 0 51 l 47 78 q 189 215 136 126 q 263 408 242 303 q 275 623 285 513 q 229 828 265 733 l 229 828 q 151 960 201 897 q 33 1056 101 1024 l 33 1056 q -18 1110 -7 1074 q -17 1180 -29 1147 q 25 1232 -6 1213 q 97 1238 56 1251 l 97 1238 q 206 1179 156 1218 q 299 1090 257 1140 q 372 982 340 1040 q 422 865 403 924 l 422 865 q 460 696 449 786 q 465 513 471 606 q 438 331 460 421 q 376 162 415 240 q 281 19 338 83 q 151 -86 225 -46 z "},"*":{"ha":817,"x_min":47,"x_max":768,"o":"m 717 443 l 717 443 q 683 415 703 424 q 642 405 663 406 q 601 413 621 404 q 565 439 581 421 l 565 439 q 510 499 538 469 q 453 556 483 528 l 453 556 q 427 578 440 567 q 403 601 414 590 l 403 601 q 368 571 385 586 q 335 539 351 556 l 335 539 q 292 496 313 518 q 251 450 272 474 l 251 450 q 203 419 232 426 q 147 421 175 411 l 147 421 q 122 433 133 425 q 101 453 111 442 l 101 453 q 83 497 88 468 q 86 544 78 525 l 86 544 q 122 599 99 575 q 168 647 144 624 l 168 647 q 203 683 185 665 q 239 717 221 700 l 239 717 q 176 742 207 731 q 113 765 144 753 l 113 765 q 69 798 85 776 q 51 844 54 819 q 58 894 47 869 q 92 936 68 919 l 92 936 q 135 953 111 950 q 183 947 160 956 l 183 947 q 247 922 215 935 q 311 897 279 910 l 311 897 q 310 949 310 924 q 310 1003 310 975 l 310 1003 q 315 1033 310 1021 l 315 1033 q 342 1083 321 1063 q 390 1110 363 1104 l 390 1110 q 434 1108 413 1114 q 472 1090 456 1103 q 497 1056 488 1076 q 507 1014 507 1036 l 507 1014 l 507 886 q 570 911 539 899 q 633 936 601 924 l 633 936 q 699 938 665 949 q 751 899 732 926 l 751 899 q 766 857 764 879 q 762 815 768 835 q 740 778 756 794 q 704 754 725 763 l 704 754 q 641 730 672 742 q 578 706 610 718 l 578 706 q 592 693 586 697 l 592 693 q 653 631 624 664 q 713 567 683 599 l 713 567 q 737 505 736 539 q 717 443 738 471 z "},"+":{"ha":651,"x_min":35,"x_max":613,"o":"m 433 296 l 433 296 q 421 240 435 263 q 385 205 407 217 q 339 192 364 193 q 292 202 314 192 q 255 234 269 213 q 239 289 240 256 l 239 289 q 237 336 238 313 q 236 383 236 360 l 236 383 q 190 381 213 382 q 146 376 168 379 l 146 376 q 76 396 103 372 q 42 451 49 419 q 49 516 35 483 q 103 564 63 549 l 103 564 q 152 574 119 571 q 226 579 185 576 l 226 579 q 224 617 225 599 q 219 656 222 636 l 219 656 q 237 726 214 699 q 292 763 260 754 q 357 757 324 771 q 406 703 390 743 l 406 703 q 417 655 413 688 q 424 582 421 622 l 424 582 l 511 582 q 567 568 544 582 q 601 533 589 554 q 613 486 613 511 q 602 439 613 461 q 569 402 592 417 q 514 388 547 388 l 514 388 q 472 386 493 386 q 431 386 451 386 l 431 386 q 432 333 432 356 q 433 296 432 310 z "},",":{"ha":283,"x_min":29,"x_max":247,"o":"m 206 -54 l 206 -54 q 168 -93 192 -81 q 119 -106 144 -106 q 72 -92 94 -106 q 39 -50 50 -78 l 39 -50 q 35 3 29 -26 q 57 53 42 32 l 57 53 q 63 75 64 60 q 60 99 63 90 l 60 99 q 54 161 46 132 q 83 209 63 190 q 134 231 104 228 q 193 214 164 235 l 193 214 q 235 161 222 193 q 247 92 247 129 q 234 16 246 54 q 206 -54 222 -22 z "},"-":{"ha":643,"x_min":31,"x_max":608,"o":"m 142 376 l 142 376 q 72 396 99 372 q 38 451 44 419 q 44 516 31 483 q 99 564 58 549 l 99 564 q 146 573 114 569 q 217 578 178 576 q 301 581 257 581 q 385 582 346 582 q 458 582 425 582 q 507 582 490 582 l 507 582 q 563 568 540 582 q 597 533 585 554 q 608 486 608 511 q 598 439 608 461 q 565 402 588 417 q 510 388 543 388 l 510 388 q 325 385 417 385 q 142 376 233 386 z "},".":{"ha":296,"x_min":32,"x_max":263,"o":"m 193 -14 l 193 -14 q 135 -24 164 -26 q 84 -6 107 -21 q 47 33 61 8 q 33 90 32 58 l 33 90 q 42 130 33 111 q 63 164 50 149 q 94 188 76 179 q 133 199 113 197 l 133 199 q 142 200 138 199 q 150 201 146 201 l 150 201 q 210 187 185 203 q 249 144 236 171 q 262 87 263 118 q 242 26 261 56 l 242 26 q 193 -14 225 3 z "},"/":{"ha":635,"x_min":24,"x_max":618,"o":"m 218 13 l 218 13 q 180 -36 206 -19 q 126 -53 154 -53 q 72 -36 97 -53 q 35 13 46 -19 l 35 13 q 35 79 24 46 l 35 79 q 224 568 126 326 q 432 1049 321 810 l 432 1049 q 478 1096 447 1081 q 543 1104 510 1111 l 543 1104 q 582 1084 565 1099 q 608 1051 599 1069 q 617 1010 617 1032 q 608 967 618 988 l 608 967 q 403 494 500 732 q 218 13 307 257 z "},":":{"ha":339,"x_min":47,"x_max":290,"o":"m 221 549 l 221 549 q 163 539 192 536 q 112 556 135 542 q 74 596 89 571 q 61 653 60 621 l 61 653 q 69 692 61 674 q 91 726 78 711 q 122 751 104 742 q 161 761 140 760 l 161 761 q 169 762 165 761 q 178 763 174 763 l 178 763 q 238 749 213 765 q 277 707 264 733 q 290 649 290 681 q 269 589 289 618 l 269 589 q 221 549 253 563 z m 208 128 l 208 128 q 151 117 179 114 q 99 134 122 119 q 62 174 76 149 q 49 231 47 199 l 49 231 q 57 270 49 251 q 78 304 65 289 q 110 328 92 319 q 149 339 128 338 l 149 339 q 165 342 160 342 l 165 342 q 226 327 200 343 q 265 285 251 311 q 277 228 278 260 q 257 168 276 197 l 257 168 q 208 128 240 142 z "},";":{"ha":357,"x_min":49,"x_max":308,"o":"m 232 517 l 232 517 q 168 505 200 501 q 111 524 136 508 q 70 568 86 540 q 56 632 54 596 l 56 632 q 65 675 56 654 q 89 713 74 696 q 124 740 104 729 q 165 751 143 750 l 165 751 q 175 752 171 751 q 185 754 179 753 l 185 754 q 251 738 222 756 q 294 692 279 721 q 308 628 308 663 q 286 561 307 593 l 286 561 q 232 517 268 532 z m 225 -14 l 225 -14 q 188 -53 211 -40 q 139 -65 164 -65 q 92 -51 114 -65 q 58 -10 69 -37 l 58 -10 q 55 43 49 14 q 76 93 61 72 l 76 93 q 83 115 83 100 q 79 139 82 131 l 79 139 q 74 201 65 172 q 103 249 82 231 q 153 272 124 268 q 213 254 183 275 l 213 254 q 254 201 242 233 q 266 131 267 168 q 253 55 265 93 q 225 -14 242 17 z "},"<":{"ha":579,"x_min":38,"x_max":532,"o":"m 489 289 l 489 289 q 519 222 522 258 q 493 160 517 186 q 432 127 469 135 q 358 146 394 119 l 358 146 q 245 227 303 188 q 139 315 188 267 l 139 315 q 99 362 119 335 q 63 419 78 389 q 42 480 47 450 q 50 535 38 510 l 50 535 q 112 626 75 585 q 191 706 149 668 q 278 778 233 743 q 368 847 324 813 l 368 847 q 421 871 394 868 q 469 864 447 874 q 507 834 492 854 q 527 790 522 814 q 524 742 532 767 q 490 696 515 717 l 490 696 q 360 598 426 646 q 247 486 294 550 l 247 486 q 301 430 271 454 q 363 383 331 406 q 427 338 394 360 q 489 289 460 315 z "},"=":{"ha":628,"x_min":42,"x_max":582,"o":"m 144 560 l 144 560 q 79 577 104 556 q 48 629 54 599 q 55 690 42 660 q 106 735 68 721 l 106 735 q 180 746 126 743 q 293 749 233 749 q 406 750 353 750 q 483 750 460 750 l 483 750 q 535 737 514 750 q 566 704 556 724 q 577 661 576 685 q 568 617 578 638 q 538 583 558 597 q 486 569 517 569 l 486 569 q 315 568 400 568 q 144 560 231 568 z m 150 283 l 150 283 q 85 301 110 279 q 53 353 60 324 q 59 414 46 383 q 110 458 72 444 l 110 458 q 185 469 132 467 q 297 474 238 472 q 410 474 357 475 q 488 474 464 474 l 488 474 q 557 447 533 475 q 581 385 581 419 q 559 323 582 351 q 490 293 536 294 l 490 293 q 319 292 404 292 q 150 283 235 292 z "},">":{"ha":579,"x_min":47,"x_max":542,"o":"m 221 146 l 221 146 q 148 127 185 119 q 87 160 111 135 q 60 222 63 186 q 90 289 57 258 l 90 289 q 151 338 119 315 q 216 383 183 360 q 278 430 249 406 q 332 486 308 454 l 332 486 q 219 598 285 550 q 89 696 153 646 l 89 696 q 55 742 63 717 q 52 790 47 767 q 73 834 57 814 q 111 864 89 854 q 159 871 133 874 q 211 847 185 868 l 211 847 q 300 778 254 813 q 388 706 346 743 q 467 626 431 668 q 529 535 504 585 l 529 535 q 537 480 542 510 q 517 419 532 450 q 481 362 503 389 q 440 315 460 335 l 440 315 q 334 227 392 267 q 221 146 276 188 z "},"?":{"ha":724,"x_min":22,"x_max":686,"o":"m 446 336 l 446 336 q 419 330 433 332 q 393 331 406 328 l 393 331 q 356 347 374 335 q 329 375 339 358 l 329 375 q 299 428 314 401 q 278 486 285 456 l 278 486 q 274 515 275 500 q 276 543 274 529 l 276 543 q 301 594 283 571 q 342 638 319 618 l 342 638 q 394 682 368 660 q 444 729 421 704 l 444 729 q 456 743 449 735 q 469 761 463 751 q 479 781 475 771 q 482 797 483 790 l 482 797 q 477 810 481 804 q 469 821 474 815 l 469 821 q 438 847 457 838 q 399 864 418 857 l 399 864 q 358 873 379 871 q 317 875 338 875 l 317 875 q 190 856 253 875 l 190 856 q 173 847 181 853 q 156 839 165 842 l 156 839 q 99 835 128 828 q 51 863 71 842 l 51 863 q 25 925 28 888 q 43 988 22 963 l 43 988 q 122 1038 75 1024 q 217 1061 169 1053 l 217 1061 q 310 1069 263 1068 q 404 1063 358 1071 l 404 1063 q 478 1042 442 1056 q 546 1008 514 1028 l 546 1008 q 625 938 590 982 q 671 842 660 893 l 671 842 q 660 710 686 774 l 660 710 q 585 594 636 644 q 482 501 535 544 l 482 501 q 488 490 483 497 q 496 475 492 483 q 503 459 500 467 q 507 447 507 451 l 507 447 q 507 408 510 428 q 492 372 504 388 l 492 372 q 472 351 482 361 q 446 336 461 340 z m 468 51 l 468 51 q 403 53 433 42 q 355 87 374 64 q 333 140 336 110 q 351 200 331 171 l 351 200 q 394 235 369 224 l 394 235 q 427 242 410 242 q 461 242 444 243 l 461 242 q 503 224 485 240 q 533 189 522 208 l 533 189 q 542 131 547 165 q 517 79 538 97 l 517 79 q 468 51 494 60 z "},"@":{"ha":1378,"x_min":50,"x_max":1338,"o":"m 1303 96 l 1303 96 q 1149 -22 1236 26 q 965 -99 1061 -71 q 767 -136 868 -128 q 569 -132 665 -144 l 569 -132 q 431 -99 501 -124 q 299 -37 361 -75 q 186 53 236 1 q 107 167 136 104 l 107 167 q 56 416 50 289 q 117 656 63 543 q 269 860 172 769 q 492 1000 367 950 l 492 1000 q 660 1044 574 1033 q 828 1046 746 1056 q 985 1007 911 1036 q 1115 928 1058 978 q 1206 810 1171 879 q 1243 653 1240 740 l 1243 653 q 1224 506 1246 578 q 1158 378 1201 433 q 1053 290 1115 322 q 917 263 992 258 l 917 263 q 824 189 875 217 q 717 151 772 161 q 609 147 663 140 q 509 178 556 154 q 426 244 463 203 q 372 344 390 285 l 372 344 q 367 522 343 438 q 449 669 390 607 q 593 766 507 732 q 776 792 679 800 l 776 792 q 799 785 783 792 q 821 782 815 779 l 821 782 q 875 792 847 796 q 924 772 903 788 q 956 731 944 756 q 960 678 967 706 l 960 678 q 942 624 953 651 q 922 569 931 596 q 910 515 913 542 q 917 461 907 488 l 917 461 q 996 492 968 465 q 1042 582 1024 519 l 1042 582 q 1033 718 1064 661 q 941 809 1003 775 q 797 852 879 843 q 635 843 714 861 l 635 843 q 473 774 546 822 q 349 660 400 726 q 274 513 299 593 q 257 347 249 432 l 257 347 q 322 188 265 250 q 463 92 379 125 q 647 56 547 60 q 843 71 747 51 l 843 71 q 1015 130 931 90 q 1165 233 1100 169 l 1165 233 q 1239 264 1200 268 q 1303 235 1278 260 q 1333 171 1329 210 q 1303 96 1338 132 z m 557 483 l 557 483 q 557 406 543 439 q 600 354 571 372 q 669 338 629 336 q 744 367 708 339 l 744 367 q 715 479 715 417 q 731 599 715 542 l 731 599 q 677 588 704 597 q 626 564 650 579 q 583 528 601 549 q 557 483 565 508 z "},"A":{"ha":814,"x_min":43,"x_max":750,"o":"m 644 -53 l 644 -53 q 615 -55 629 -56 q 588 -50 601 -54 l 588 -50 q 538 -8 556 -37 q 525 58 519 22 l 525 58 q 550 293 544 175 l 550 293 q 539 296 542 296 l 539 296 q 350 279 444 285 l 350 279 q 297 277 324 278 q 244 274 271 276 l 244 274 q 244 144 242 208 l 244 144 q 246 139 244 142 q 249 133 247 136 l 249 133 q 253 107 251 121 q 251 79 254 93 l 251 79 q 229 38 244 56 q 193 13 214 21 q 149 6 172 4 q 104 21 125 8 l 104 21 q 67 59 82 35 q 51 110 53 83 l 51 110 q 58 415 43 261 q 122 713 74 568 l 122 713 q 189 845 146 783 q 290 950 232 907 l 290 950 q 348 984 318 969 q 410 1006 378 999 l 410 1006 q 528 1006 469 1021 l 528 1006 q 628 951 583 993 l 628 951 q 692 864 668 915 q 725 760 715 813 l 725 760 q 745 596 740 678 q 750 431 750 514 l 750 431 q 741 231 749 331 q 718 32 733 132 l 718 32 q 715 20 717 25 q 713 10 714 15 l 713 10 q 685 -30 707 -10 q 644 -53 664 -50 z m 304 642 l 304 642 q 263 469 278 560 l 263 469 q 410 479 338 474 q 554 494 482 485 l 554 494 l 554 499 q 549 611 553 556 q 535 722 546 667 l 535 722 q 528 747 532 732 q 517 776 524 763 q 501 801 510 790 q 483 817 493 813 l 483 817 q 458 817 472 821 q 428 806 443 814 q 401 789 414 799 q 379 771 388 779 l 379 771 q 304 642 326 715 z "},"B":{"ha":954,"x_min":53,"x_max":925,"o":"m 538 -26 l 538 -26 q 439 -40 492 -36 q 335 -40 386 -44 q 240 -24 285 -36 q 169 8 196 -12 q 135 60 142 29 q 151 131 128 90 l 151 131 q 134 233 146 168 q 108 377 122 299 q 81 541 94 456 q 60 705 68 626 q 53 847 53 783 q 67 946 53 910 l 67 946 q 100 988 75 968 q 156 1025 125 1008 q 219 1053 188 1042 q 274 1069 250 1065 l 274 1069 q 383 1083 326 1081 q 494 1078 439 1085 q 601 1053 549 1071 q 697 1006 653 1035 l 697 1006 q 781 919 750 971 q 821 811 813 868 q 813 697 829 754 q 754 592 796 639 l 754 592 q 825 540 792 569 q 882 472 858 510 l 882 472 q 920 364 915 418 q 908 259 925 310 q 853 163 890 208 q 767 81 817 118 q 659 15 718 43 q 538 -26 600 -12 z m 353 894 l 353 894 q 269 861 292 888 q 244 800 246 835 q 251 726 242 765 q 265 651 261 686 l 265 651 q 352 662 306 658 q 443 670 399 665 q 527 683 488 675 q 593 708 567 692 q 629 748 619 724 q 624 811 639 772 l 624 811 q 580 860 611 842 q 509 888 549 879 q 428 898 469 897 q 353 894 386 899 z m 346 144 l 346 144 q 433 146 389 142 q 520 163 478 150 q 601 196 563 175 q 672 246 640 217 l 672 246 q 718 321 714 285 q 699 387 722 357 q 631 439 676 417 q 531 472 586 461 q 413 481 475 483 q 294 461 351 479 l 294 461 q 321 303 307 382 q 346 144 335 224 z "},"C":{"ha":961,"x_min":28,"x_max":944,"o":"m 868 40 l 868 40 q 707 5 792 18 q 539 -6 622 -8 q 376 16 456 -4 q 232 82 297 36 l 232 82 q 159 148 192 110 q 101 231 126 186 q 61 324 76 275 q 42 421 46 372 l 42 421 q 74 674 28 556 q 209 881 121 793 q 418 1017 297 968 q 674 1058 539 1065 l 674 1058 q 752 1040 715 1057 q 816 998 789 1024 q 860 942 843 972 q 877 882 876 911 q 860 828 878 853 q 804 790 843 804 l 804 790 q 772 788 789 785 q 740 800 756 792 q 712 822 725 808 q 690 849 699 835 l 690 849 q 655 865 681 864 q 613 864 629 867 l 613 864 q 433 802 514 851 q 300 681 351 753 q 235 522 249 610 q 260 343 221 435 l 260 343 q 351 237 289 272 q 492 192 414 201 q 656 194 571 183 q 814 226 740 206 l 814 226 q 872 228 846 236 q 914 203 897 221 q 938 160 931 185 q 940 113 944 136 q 917 69 935 89 q 868 40 900 49 z "},"D":{"ha":953,"x_min":56,"x_max":921,"o":"m 229 -22 l 229 -22 q 158 0 189 -26 q 124 67 126 26 l 124 67 q 88 479 104 274 q 57 892 72 685 l 57 892 q 64 943 56 917 q 90 988 72 969 l 90 988 q 125 1010 106 1003 q 164 1022 144 1018 l 164 1022 q 301 1036 232 1036 q 439 1036 369 1036 l 439 1036 q 639 996 543 1036 l 639 996 q 741 936 694 972 q 823 854 788 900 q 882 755 858 808 q 914 643 906 701 l 914 643 q 916 535 921 590 q 896 429 911 481 l 896 429 q 856 335 881 381 q 801 249 832 289 l 801 249 q 709 152 761 196 q 599 76 657 108 l 599 76 q 481 27 543 46 q 354 6 418 8 l 354 6 q 321 4 338 6 q 288 4 304 3 l 288 4 q 281 -1 286 4 l 281 -1 q 256 -15 269 -8 q 229 -22 243 -21 z m 306 203 l 306 203 q 313 199 306 199 l 313 199 q 346 201 329 200 q 379 204 363 201 l 379 204 q 538 267 463 217 q 661 388 613 318 l 661 388 q 708 480 690 429 q 724 582 725 531 l 724 582 q 661 744 721 676 l 661 744 q 606 793 638 772 q 539 826 575 814 l 539 826 q 481 839 511 836 q 419 842 450 842 l 419 842 q 338 843 379 843 q 256 839 296 843 l 256 839 q 279 521 267 679 q 306 203 292 363 z "},"E":{"ha":824,"x_min":22,"x_max":797,"o":"m 406 -24 l 406 -24 q 349 -41 378 -32 q 290 -46 319 -50 l 290 -46 q 204 0 238 -39 l 204 0 q 176 49 185 21 q 164 104 168 76 l 164 104 q 140 322 149 213 q 128 540 131 431 l 128 540 q 93 543 113 539 l 93 543 q 48 573 65 551 q 26 619 31 594 q 31 670 22 644 q 63 715 39 696 l 63 715 q 92 731 76 726 q 126 739 108 736 l 126 739 q 125 855 125 797 q 128 971 125 913 l 128 971 q 133 1008 129 990 q 144 1044 136 1026 l 144 1044 q 164 1070 151 1058 q 190 1089 176 1082 l 190 1089 q 253 1106 219 1104 q 319 1103 288 1107 l 319 1103 q 488 1084 404 1093 q 658 1071 572 1075 l 658 1071 q 720 1047 694 1069 q 751 990 746 1024 l 751 990 q 749 946 756 967 q 728 910 743 925 q 694 885 714 894 q 651 878 674 876 l 651 878 q 486 888 568 881 q 321 907 404 896 l 321 907 q 320 847 319 876 q 321 785 321 817 l 321 785 l 321 757 q 458 765 390 761 q 596 771 526 768 l 596 771 q 652 756 628 772 q 688 714 676 739 q 697 660 700 689 q 671 607 693 631 l 671 607 q 640 585 658 593 q 601 576 621 576 l 601 576 q 462 571 531 574 q 322 561 393 568 l 322 561 q 331 363 325 461 q 351 164 338 264 l 351 164 q 483 210 418 186 q 613 257 547 233 l 613 257 q 652 271 632 264 q 693 281 672 278 l 693 281 q 739 271 713 283 q 776 242 765 258 l 776 242 q 794 189 790 218 l 794 189 q 785 143 797 169 q 754 106 772 117 l 754 106 q 721 90 739 96 q 685 76 703 83 l 685 76 q 406 -24 547 24 z "},"F":{"ha":824,"x_min":14,"x_max":804,"o":"m 390 -92 l 390 -92 q 344 -109 368 -107 q 298 -103 319 -111 q 260 -76 276 -94 q 238 -31 243 -57 l 238 -31 q 195 194 214 82 q 161 421 176 307 l 161 421 q 160 434 161 428 q 158 447 160 440 l 158 447 q 100 453 126 447 l 100 453 q 38 492 61 460 q 19 563 14 524 l 19 563 q 33 603 22 585 q 60 632 43 621 q 97 648 76 643 q 138 647 117 653 l 138 647 q 131 776 132 713 q 132 903 129 839 l 132 903 q 136 956 133 929 q 149 1007 139 982 l 149 1007 q 182 1058 160 1038 l 182 1058 q 243 1088 208 1081 q 311 1096 278 1096 l 311 1096 q 490 1093 401 1096 q 669 1088 579 1090 l 669 1088 q 732 1065 706 1088 q 765 1008 758 1043 l 765 1008 q 763 964 769 985 q 744 928 757 943 q 710 903 731 913 q 667 893 690 893 l 667 893 q 497 898 581 896 q 326 901 413 900 l 326 901 q 324 774 322 838 q 332 644 326 710 l 332 644 q 513 655 424 647 q 693 674 603 663 l 693 674 q 758 658 729 676 q 797 607 786 639 l 797 607 q 801 563 804 585 q 786 523 797 540 q 756 494 775 506 q 714 479 738 482 l 714 479 q 535 463 624 469 q 354 451 446 456 l 354 451 q 386 230 368 340 q 428 10 404 119 l 428 10 q 424 -48 435 -21 q 390 -92 414 -75 z "},"G":{"ha":993,"x_min":33,"x_max":960,"o":"m 654 -25 l 654 -25 q 460 -31 557 -47 q 281 31 364 -15 q 138 153 199 78 q 54 324 78 228 l 54 324 q 41 496 33 408 q 80 665 49 583 q 163 820 111 747 q 283 949 215 893 q 431 1040 350 1004 q 600 1083 511 1075 l 600 1083 q 710 1069 658 1089 q 799 1014 761 1050 q 855 927 836 978 q 864 818 874 876 l 864 818 q 825 751 857 771 q 758 738 793 732 q 696 771 722 743 q 672 846 669 799 l 672 846 q 660 879 674 869 q 626 890 647 889 q 581 885 606 890 q 533 871 556 879 l 533 871 q 399 795 458 844 q 300 684 340 746 q 241 554 260 622 q 231 420 222 486 q 274 297 239 354 q 379 200 310 239 l 379 200 q 510 158 442 164 q 634 175 578 153 q 725 246 690 197 q 758 367 760 294 l 758 367 q 665 344 710 364 q 582 296 621 324 l 582 296 q 526 275 553 276 q 478 285 499 274 q 443 319 457 297 q 428 365 429 340 q 438 416 426 390 q 479 461 450 442 l 479 461 q 560 508 517 486 q 648 544 603 531 q 739 562 693 558 q 828 553 785 565 l 828 553 q 910 500 881 538 q 949 413 939 463 q 952 306 960 363 q 925 199 944 250 l 925 199 q 881 122 908 158 q 817 56 853 85 q 739 6 781 26 q 654 -25 697 -15 z "},"H":{"ha":968,"x_min":26,"x_max":900,"o":"m 303 -4 l 303 -4 q 258 -25 282 -21 q 212 -23 235 -29 q 170 -1 189 -17 q 142 39 151 15 l 142 39 q 122 111 126 74 q 114 185 117 149 l 114 185 q 110 418 110 301 l 110 418 q 97 423 103 421 q 86 429 92 425 l 86 429 q 63 447 74 436 q 46 471 53 457 l 46 471 q 40 544 26 507 q 90 597 54 581 l 90 597 q 113 606 100 603 l 113 606 q 120 785 115 696 q 129 964 125 874 l 129 964 q 134 994 131 979 q 144 1024 138 1010 l 144 1024 q 192 1065 160 1051 l 192 1065 q 226 1074 208 1072 q 262 1069 244 1075 q 294 1053 279 1064 q 317 1026 308 1043 l 317 1026 q 331 992 326 1011 q 329 956 336 974 l 329 956 q 326 946 329 953 q 324 936 324 939 l 324 936 q 315 786 319 861 q 308 635 311 711 l 308 635 q 476 656 392 646 q 643 676 560 665 l 643 676 q 667 679 654 678 q 690 681 679 681 l 690 681 q 697 817 693 749 q 704 954 701 885 l 704 954 q 726 1010 706 988 q 773 1040 746 1032 q 829 1041 800 1049 q 879 1007 858 1033 l 879 1007 q 894 978 889 994 q 899 944 900 961 l 899 944 q 880 550 889 746 q 879 156 871 354 l 879 156 q 879 133 879 150 q 881 111 879 115 l 881 111 q 883 61 888 85 l 883 61 q 857 11 878 31 q 809 -13 836 -8 q 754 -9 782 -18 q 708 25 726 0 l 708 25 q 688 87 689 51 q 685 156 686 122 l 685 156 q 681 321 682 239 q 683 486 681 403 l 683 486 q 674 489 678 488 q 667 490 669 490 l 667 490 q 485 468 575 479 q 304 446 394 457 l 304 446 q 304 315 303 379 q 310 185 306 251 l 310 185 q 314 138 310 160 l 314 138 q 321 127 315 135 q 328 117 326 119 l 328 117 q 340 69 340 96 l 340 69 q 329 28 339 49 q 303 -4 319 8 z "},"I":{"ha":368,"x_min":67,"x_max":315,"o":"m 217 6 l 217 6 q 133 15 172 -10 q 88 85 94 39 l 88 85 q 69 283 72 183 q 71 482 67 382 l 71 482 q 88 709 75 596 q 119 935 100 822 l 119 935 q 145 986 125 965 q 193 1014 165 1007 l 193 1014 q 242 1013 218 1019 q 282 990 265 1006 q 307 951 299 974 q 311 901 315 928 l 311 901 q 265 483 274 696 l 265 483 q 264 297 261 390 q 279 113 267 204 l 279 113 q 267 47 285 78 q 217 6 249 17 z "},"J":{"ha":860,"x_min":32,"x_max":807,"o":"m 418 -71 l 418 -71 q 335 -64 376 -72 q 257 -37 293 -56 l 257 -37 q 131 63 185 -3 l 131 63 q 68 160 93 107 q 36 272 43 214 l 36 272 q 35 355 32 313 q 51 432 38 397 q 91 487 65 467 q 157 503 117 507 l 157 503 q 198 488 179 500 q 228 457 217 475 q 242 417 239 439 q 238 374 244 396 l 238 374 q 229 330 231 353 q 231 285 228 307 l 231 285 q 260 210 239 244 q 312 154 282 176 q 379 125 342 132 q 456 131 417 118 l 456 131 q 518 169 490 143 q 565 228 546 196 l 565 228 q 597 314 589 268 q 608 406 606 360 l 608 406 q 605 546 613 476 q 586 686 597 615 l 586 686 q 572 769 579 728 q 556 853 565 811 l 556 853 q 392 831 474 842 q 228 825 311 821 l 228 825 q 167 851 193 828 q 136 907 142 874 l 136 907 q 160 988 129 954 q 239 1019 192 1021 l 239 1019 q 333 1020 286 1017 q 426 1030 379 1024 q 519 1043 472 1036 q 611 1056 565 1050 l 611 1056 q 676 1040 649 1060 q 715 990 704 1021 l 715 990 q 726 967 722 979 q 733 944 731 956 l 733 944 q 757 842 747 893 q 775 739 767 790 l 775 739 q 798 576 789 657 q 804 414 807 496 l 804 414 q 796 318 801 365 q 775 226 790 271 l 775 226 q 724 114 757 168 q 643 19 690 60 l 643 19 q 538 -44 597 -21 q 418 -71 479 -68 z "},"K":{"ha":854,"x_min":44,"x_max":822,"o":"m 276 18 l 276 18 q 223 -28 258 -12 q 156 -29 188 -44 l 156 -29 q 131 -15 143 -22 q 111 4 119 -7 l 111 4 q 93 49 97 19 q 97 96 89 78 l 97 96 q 108 115 101 106 l 108 115 q 110 131 110 119 q 113 147 111 143 l 113 147 q 115 331 119 239 q 104 514 111 422 l 104 514 q 84 722 96 618 q 51 931 72 826 l 51 931 q 61 996 44 965 q 110 1040 78 1026 l 110 1040 q 153 1047 131 1049 q 193 1036 175 1046 q 225 1008 211 1026 q 243 968 239 990 l 243 968 q 274 778 263 872 q 293 588 285 683 l 293 588 q 418 636 360 604 l 418 636 q 486 687 454 658 q 542 751 518 715 l 542 751 q 593 862 575 803 q 619 982 611 921 l 619 982 q 649 1040 624 1017 q 710 1067 675 1064 l 710 1067 q 752 1060 732 1068 q 786 1035 772 1051 q 807 999 800 1019 q 811 956 814 978 l 811 956 q 778 807 800 881 q 718 668 757 733 l 718 668 q 564 500 658 567 l 564 500 q 503 463 535 479 q 440 432 472 447 l 440 432 q 528 388 485 411 q 614 342 571 365 l 614 342 q 697 294 656 318 q 778 240 739 269 l 778 240 q 814 185 806 218 q 807 119 822 151 l 807 119 q 778 85 796 99 q 740 68 761 72 q 698 68 719 64 q 658 86 676 72 l 658 86 q 588 133 625 113 q 515 175 551 154 l 515 175 q 414 229 465 203 q 310 279 363 256 l 310 279 l 310 208 q 306 138 308 172 q 297 69 304 104 l 297 69 q 276 18 290 40 z "},"L":{"ha":668,"x_min":61,"x_max":658,"o":"m 263 -36 l 263 -36 q 217 -40 240 -42 q 174 -26 193 -37 l 174 -26 q 133 6 150 -15 q 110 51 117 28 l 110 51 q 99 113 100 82 q 97 176 99 144 l 97 176 q 87 516 88 347 q 71 856 86 685 l 71 856 q 67 887 69 871 q 63 918 65 903 l 63 918 q 65 940 61 928 q 74 965 68 953 q 88 986 79 976 q 104 1000 96 996 l 104 1000 q 111 1004 107 1003 q 118 1008 115 1006 l 118 1008 q 140 1015 126 1014 q 166 1016 153 1017 q 192 1011 179 1015 q 213 1001 204 1007 l 213 1001 q 240 975 228 990 q 256 940 253 960 l 256 940 q 261 906 258 924 q 265 871 264 889 l 265 871 q 281 528 281 699 q 292 185 282 357 l 292 185 q 292 178 292 182 q 293 174 292 174 l 293 174 q 413 205 353 193 q 536 228 474 217 l 536 228 q 587 225 563 233 q 628 199 611 217 q 651 158 644 182 q 650 110 658 135 l 650 110 q 574 39 632 51 l 574 39 q 448 15 511 26 q 324 -18 385 4 l 324 -18 q 293 -28 308 -24 q 263 -36 278 -33 z "},"M":{"ha":1081,"x_min":54,"x_max":1021,"o":"m 888 -75 l 888 -75 q 858 -78 872 -78 q 831 -74 844 -78 l 831 -74 q 779 -33 797 -62 q 765 32 761 -3 l 765 32 q 780 199 775 115 q 789 365 785 282 l 789 365 q 799 510 793 438 q 811 654 804 582 l 811 654 q 722 529 767 592 q 632 406 678 467 l 632 406 q 599 363 615 385 q 561 328 583 342 l 561 328 q 471 314 519 300 l 471 314 q 431 335 449 321 q 397 368 413 350 l 397 368 q 334 466 361 414 q 281 571 307 518 l 281 571 q 298 353 289 463 q 315 136 307 244 l 315 136 q 321 128 317 133 q 326 119 325 122 l 326 119 q 340 75 338 100 q 331 29 342 50 l 331 29 q 321 13 326 21 q 311 -3 315 6 l 311 -3 q 294 -28 306 -17 q 269 -46 283 -39 l 269 -46 q 219 -57 244 -58 q 174 -43 194 -56 q 141 -8 154 -31 q 126 42 128 14 l 126 42 q 122 115 125 78 q 117 188 119 151 l 117 188 q 98 417 106 303 q 81 646 90 531 l 81 646 q 64 798 74 722 q 57 950 54 874 l 57 950 q 64 990 58 969 q 82 1025 69 1010 l 82 1025 q 142 1061 106 1053 q 211 1050 179 1069 l 211 1050 q 240 1028 228 1042 q 264 999 253 1014 l 264 999 q 306 940 286 969 q 344 878 325 910 l 344 878 q 426 719 389 800 q 504 560 463 639 l 504 560 q 657 772 583 665 q 804 988 731 879 l 804 988 q 826 1018 815 1003 q 853 1044 838 1033 l 853 1044 q 891 1063 871 1058 q 931 1063 911 1067 q 969 1047 951 1058 q 999 1017 986 1035 l 999 1017 q 1017 966 1014 993 q 1019 913 1019 939 l 1019 913 q 1019 835 1021 874 q 1014 760 1017 797 l 1014 760 q 999 578 1007 668 q 986 397 992 489 l 986 397 q 977 228 981 313 q 964 58 974 143 l 964 58 q 959 24 961 42 q 954 -10 957 7 l 954 -10 q 928 -50 949 -29 q 888 -75 907 -71 z "},"N":{"ha":903,"x_min":61,"x_max":847,"o":"m 319 79 l 319 79 q 314 41 322 58 q 290 12 306 24 q 255 -6 275 0 q 214 -10 235 -11 l 214 -10 q 178 -1 196 -8 q 149 18 161 6 l 149 18 q 126 63 129 36 l 126 63 q 97 285 111 175 q 74 508 83 396 l 74 508 q 64 634 67 571 q 64 760 61 697 l 64 760 q 72 852 67 806 q 97 942 78 899 l 97 942 q 119 979 107 961 q 150 1008 132 997 l 150 1008 q 230 1034 186 1032 q 310 1015 274 1036 l 310 1015 q 368 966 343 996 q 413 903 393 936 l 413 903 q 456 819 436 863 q 493 732 476 776 l 493 732 q 557 556 528 644 q 615 378 586 468 l 615 378 q 617 407 617 393 q 618 435 617 421 l 618 435 q 635 688 622 563 q 651 940 647 813 l 651 940 q 662 970 653 956 q 682 996 671 985 l 682 996 q 723 1015 699 1011 q 771 1015 747 1018 l 771 1015 q 824 989 801 1013 q 846 933 847 965 l 846 933 q 833 735 842 833 q 818 536 825 636 l 818 536 q 809 374 813 454 q 794 214 806 294 l 794 214 q 783 153 790 183 q 765 94 776 124 l 765 94 q 736 47 754 67 l 736 47 q 661 8 706 15 q 578 21 617 0 l 578 21 q 541 53 556 32 q 515 96 526 74 l 515 96 q 490 156 501 125 q 468 218 479 186 l 468 218 q 387 462 425 340 q 300 704 349 583 l 300 704 q 281 749 290 728 q 261 793 272 771 l 261 793 q 257 692 256 743 q 261 592 258 642 l 261 592 q 287 334 271 461 q 319 79 303 207 z "},"O":{"ha":896,"x_min":44,"x_max":858,"o":"m 488 21 l 488 21 q 413 6 451 10 q 335 10 374 3 l 335 10 q 193 75 254 21 l 193 75 q 132 143 157 104 q 90 225 107 182 l 90 225 q 60 334 69 278 q 47 447 50 390 l 47 447 q 58 613 44 531 q 101 774 71 696 l 101 774 q 148 869 121 822 q 214 953 175 915 l 214 953 q 268 989 235 972 q 339 1016 301 1006 q 413 1029 376 1026 q 475 1022 449 1032 q 512 989 501 1013 q 508 925 522 965 l 508 925 q 513 924 508 922 q 521 925 518 925 l 521 925 q 599 930 558 932 q 675 914 639 928 l 675 914 q 731 884 704 903 q 779 842 758 865 l 779 842 q 812 794 799 819 q 833 740 825 768 l 833 740 q 854 643 850 693 q 854 543 858 593 l 854 543 q 801 328 844 435 q 682 143 757 222 l 682 143 q 593 69 643 101 q 488 21 543 36 z m 335 206 l 335 206 q 378 196 354 196 q 424 200 401 196 l 424 200 q 527 251 481 210 q 606 348 574 292 q 656 469 638 404 q 674 592 674 533 l 674 592 q 670 644 674 618 q 656 694 667 671 l 656 694 q 634 728 649 713 q 601 750 619 743 l 601 750 q 563 756 582 757 q 525 750 544 754 l 525 750 q 472 733 497 744 q 421 710 446 722 l 421 710 q 363 703 393 694 q 317 740 332 713 l 317 740 q 314 750 314 746 l 314 750 q 311 753 314 750 l 311 753 q 303 785 306 767 l 303 785 q 265 711 279 750 q 240 632 250 672 l 240 632 q 226 411 214 525 l 226 411 q 240 337 231 374 q 268 268 250 300 l 268 268 q 296 231 279 249 q 335 206 313 214 z "},"P":{"ha":889,"x_min":69,"x_max":858,"o":"m 318 -7 l 318 -7 q 276 -31 304 -22 q 229 -32 249 -39 l 229 -32 q 187 -10 207 -25 q 156 24 167 4 l 156 24 q 124 93 135 56 q 107 168 114 131 l 107 168 q 72 534 75 351 q 75 901 69 717 l 75 901 q 77 966 76 933 q 92 1028 78 999 l 92 1028 q 114 1060 99 1046 q 149 1082 129 1075 l 149 1082 q 166 1088 157 1086 q 185 1092 175 1089 l 185 1092 q 240 1081 210 1096 q 281 1043 269 1067 l 281 1043 q 288 1022 285 1033 q 293 1000 292 1011 l 293 1000 q 329 1025 308 1014 l 329 1025 q 410 1061 368 1046 q 496 1079 451 1076 l 496 1079 q 617 1067 558 1086 l 617 1067 q 683 1035 651 1056 q 740 990 714 1015 l 740 990 q 785 935 765 965 q 818 872 804 904 l 818 872 q 849 770 839 824 q 856 663 858 717 q 840 558 854 610 q 801 460 826 506 l 801 460 q 597 279 732 333 l 597 279 q 444 246 524 250 q 289 264 365 242 l 289 264 q 295 217 292 240 q 304 169 299 193 l 304 169 q 315 135 308 154 l 315 135 q 318 131 317 132 q 322 128 319 131 l 322 128 q 337 105 331 117 q 346 79 343 93 l 346 79 q 347 51 349 65 q 339 24 346 36 l 339 24 q 318 -7 333 8 z m 272 478 l 272 478 q 362 445 314 454 q 456 442 410 436 q 544 469 503 449 q 614 528 586 490 l 614 528 q 656 620 644 568 q 660 722 667 672 l 660 722 q 633 802 654 767 q 581 858 613 838 q 508 878 549 878 q 424 854 468 879 l 424 854 q 397 835 408 847 q 375 811 386 824 l 375 811 q 290 656 314 739 q 272 478 267 574 z "},"Q":{"ha":903,"x_min":44,"x_max":879,"o":"m 807 -161 l 807 -161 q 722 -155 765 -169 q 644 -117 679 -140 l 644 -117 q 572 -51 604 -87 q 513 29 539 -14 l 513 29 q 488 21 500 22 l 488 21 q 413 6 451 10 q 335 10 374 3 l 335 10 q 193 75 254 21 l 193 75 q 132 143 157 104 q 90 225 107 182 l 90 225 q 60 334 69 278 q 47 447 50 390 l 47 447 q 58 613 44 531 q 101 774 71 696 l 101 774 q 148 869 121 822 q 214 953 175 915 l 214 953 q 268 989 235 972 q 339 1016 301 1006 q 413 1029 376 1026 q 475 1022 449 1032 q 512 989 501 1013 q 508 925 522 965 l 508 925 q 513 924 508 922 q 521 925 518 925 l 521 925 q 599 930 558 932 q 675 914 639 928 l 675 914 q 731 884 704 903 q 779 842 758 865 l 779 842 q 812 794 799 819 q 833 740 825 768 l 833 740 q 854 643 850 693 q 854 543 858 593 l 854 543 q 801 328 844 435 q 682 143 757 222 l 682 143 q 675 136 679 139 l 675 136 q 694 107 685 121 q 715 81 704 93 l 715 81 q 739 56 726 68 q 767 36 751 44 l 767 36 q 786 29 776 31 q 807 25 796 28 l 807 25 q 847 0 826 21 q 872 -40 868 -21 l 872 -40 q 872 -96 879 -68 l 872 -96 q 847 -136 868 -115 q 807 -161 826 -157 z m 335 206 l 335 206 q 377 196 354 196 q 422 199 400 196 l 422 199 q 396 254 408 226 q 372 310 383 282 l 372 310 q 359 344 365 326 q 353 381 353 361 l 353 381 q 365 428 353 406 q 396 465 376 450 l 396 465 q 444 483 418 481 q 492 476 469 485 q 531 449 514 468 q 551 404 547 431 l 551 404 q 552 392 553 401 q 553 379 551 382 l 553 379 q 567 346 560 363 q 583 313 575 329 l 583 313 q 650 449 626 374 q 674 592 674 524 l 674 592 q 670 644 674 618 q 656 694 667 671 l 656 694 q 634 728 649 713 q 601 750 619 743 l 601 750 q 563 756 582 757 q 525 750 544 754 l 525 750 q 472 733 497 744 q 421 710 446 722 l 421 710 q 363 703 393 694 q 317 740 332 713 l 317 740 q 314 750 314 746 l 314 750 q 311 753 314 750 l 311 753 q 303 785 306 767 l 303 785 q 265 711 279 750 q 240 632 250 672 l 240 632 q 226 411 214 525 l 226 411 q 240 337 231 374 q 268 268 250 300 l 268 268 q 296 231 279 249 q 335 206 313 214 z "},"R":{"ha":978,"x_min":74,"x_max":935,"o":"m 244 -60 l 244 -60 q 201 -67 224 -68 q 161 -56 179 -65 q 130 -28 143 -46 q 113 13 117 -11 l 113 13 q 93 133 101 74 q 81 254 85 193 l 81 254 q 74 438 74 347 q 78 619 75 529 q 84 801 82 710 q 85 983 86 892 l 85 983 q 105 1048 83 1022 q 156 1082 126 1074 q 217 1080 186 1090 q 267 1036 247 1069 l 267 1036 q 272 1025 268 1033 q 278 1008 275 1017 q 285 989 282 999 q 292 974 289 979 l 292 974 q 490 1042 385 1026 l 490 1042 q 588 1047 539 1049 q 685 1033 638 1046 l 685 1033 q 742 1014 714 1026 q 796 983 771 1001 l 796 983 q 867 914 836 956 q 914 824 899 872 l 914 824 q 931 742 928 785 q 931 658 935 700 l 931 658 q 900 545 924 600 q 842 443 876 490 l 842 443 q 699 308 783 365 q 521 228 615 251 l 521 228 q 517 227 518 228 q 513 226 515 226 l 513 226 q 508 225 510 225 l 508 225 q 554 183 529 201 q 608 156 579 165 l 608 156 q 653 147 631 149 q 699 151 676 144 l 699 151 q 726 164 714 156 q 753 179 739 172 l 753 179 q 800 188 771 190 q 846 175 829 186 l 846 175 q 882 133 868 157 l 882 133 q 890 113 888 125 q 891 87 892 100 q 887 62 890 74 q 878 42 883 50 l 878 42 q 863 24 871 32 q 844 8 854 15 l 844 8 q 744 -37 800 -24 q 633 -47 688 -51 l 633 -47 q 519 -19 575 -42 q 419 40 464 4 l 419 40 q 349 111 381 72 q 282 186 317 150 l 282 186 q 303 50 290 115 l 303 50 q 293 -17 310 14 q 244 -60 276 -47 z m 269 426 l 269 426 q 342 417 306 425 q 415 410 379 410 l 415 410 q 498 424 457 410 q 575 458 539 438 l 575 458 q 674 543 631 490 q 733 658 718 596 l 733 658 q 737 731 742 693 q 713 797 732 769 l 713 797 q 660 838 694 824 l 660 838 q 608 852 635 849 q 553 853 581 856 l 553 853 q 453 833 503 850 q 363 789 404 817 l 363 789 q 318 751 339 772 q 282 701 297 729 l 282 701 q 278 689 279 696 q 274 675 276 682 l 274 675 q 269 551 271 613 q 269 426 268 489 z "},"S":{"ha":858,"x_min":44,"x_max":817,"o":"m 528 -25 l 528 -25 q 399 -44 465 -42 q 269 -33 333 -47 l 269 -33 q 181 1 224 -24 q 111 63 139 25 l 111 63 q 81 126 90 90 q 75 197 72 163 l 75 197 q 81 218 75 207 q 94 240 86 229 q 113 258 103 250 q 132 269 122 267 l 132 269 q 188 276 161 278 l 188 276 q 230 256 207 274 q 260 219 253 239 l 260 219 q 265 203 263 208 l 265 203 q 267 190 268 196 q 268 176 267 183 l 268 176 q 273 172 269 174 q 279 168 276 169 l 279 168 q 333 151 304 154 q 389 150 361 149 l 389 150 q 521 175 457 153 l 521 175 q 562 196 542 183 q 597 226 582 208 l 597 226 q 618 272 614 247 q 615 319 622 296 q 592 362 608 342 q 553 394 576 382 l 553 394 q 490 415 525 408 l 490 415 q 383 438 438 429 q 276 457 329 446 l 276 457 q 234 468 256 463 q 193 482 213 474 l 193 482 q 81 579 122 513 l 81 579 q 54 640 63 607 q 44 706 46 672 l 44 706 q 61 804 44 758 l 61 804 q 106 896 76 854 q 176 969 136 938 l 176 969 q 306 1033 232 1014 q 450 1044 379 1051 l 450 1044 q 567 1015 510 1038 q 674 957 625 993 l 674 957 q 732 903 706 933 q 776 839 758 874 l 776 839 q 781 792 785 821 q 765 747 778 763 l 765 747 q 745 726 756 736 q 721 713 735 717 l 721 713 q 656 711 689 700 q 603 751 622 722 l 603 751 q 553 804 583 782 q 489 838 524 826 q 416 851 454 850 q 343 840 378 853 l 343 840 q 297 817 318 833 q 261 779 275 801 l 261 779 q 250 756 256 769 q 242 727 244 742 q 240 699 239 713 q 249 676 242 686 l 249 676 q 288 656 263 660 l 288 656 q 376 635 331 643 q 466 619 421 628 q 555 600 511 611 q 639 568 599 589 l 639 568 q 753 472 708 533 q 810 336 797 411 l 810 336 q 813 263 817 300 q 796 192 808 225 l 796 192 q 749 107 781 146 q 678 40 718 68 l 678 40 q 606 1 644 17 q 528 -25 568 -15 z "},"T":{"ha":735,"x_min":13,"x_max":706,"o":"m 456 76 l 456 76 q 437 17 456 42 q 391 -17 418 -7 q 335 -20 364 -26 q 283 13 306 -14 l 283 13 q 261 75 261 39 l 261 75 q 257 478 261 278 q 258 881 253 678 l 258 881 q 189 877 224 878 q 119 878 154 876 l 119 878 q 63 894 88 878 q 28 938 39 910 l 28 938 q 28 1013 13 975 q 82 1065 44 1050 l 82 1065 q 115 1072 97 1072 q 149 1071 132 1071 l 149 1071 q 367 1083 258 1072 q 583 1101 475 1094 l 583 1101 q 617 1101 600 1103 q 649 1092 633 1099 l 649 1092 q 688 1059 674 1081 q 703 1014 701 1038 q 697 967 706 990 q 665 926 688 943 l 665 926 q 611 906 640 906 l 611 906 q 597 906 608 906 q 582 907 585 907 l 582 907 q 518 901 550 904 q 454 896 486 899 l 454 896 q 451 487 447 690 q 456 76 456 283 z "},"U":{"ha":936,"x_min":51,"x_max":883,"o":"m 831 242 l 831 242 q 740 104 797 158 q 610 24 682 50 q 462 1 539 -1 q 315 34 385 4 q 187 122 244 64 q 97 263 129 179 l 97 263 q 58 435 65 346 q 58 615 51 524 q 80 797 64 706 q 111 975 96 888 l 111 975 q 154 1042 119 1024 q 225 1055 189 1061 q 286 1019 261 1049 q 303 940 311 989 l 303 940 q 280 817 293 885 q 257 679 267 750 q 244 538 247 608 q 252 406 242 467 q 290 299 263 346 q 367 226 317 251 l 367 226 q 429 207 394 213 q 499 204 464 201 q 566 219 535 207 q 617 256 597 232 l 617 256 q 655 338 642 286 q 673 451 668 389 q 675 582 678 514 q 666 715 672 650 q 652 838 660 781 q 638 935 644 894 l 638 935 q 655 1015 629 985 q 716 1052 681 1046 q 786 1039 751 1058 q 829 969 821 1019 l 829 969 q 859 786 844 879 q 878 601 874 693 q 874 417 883 508 q 831 242 864 326 z "},"V":{"ha":875,"x_min":15,"x_max":863,"o":"m 532 18 l 532 18 q 498 -19 518 -4 q 455 -40 478 -33 q 408 -43 432 -46 q 363 -26 385 -40 l 363 -26 q 320 13 339 -11 q 288 61 301 36 l 288 61 q 249 144 265 101 q 217 232 232 188 l 217 232 q 162 401 186 315 q 115 572 138 486 q 70 744 92 658 q 24 917 49 831 l 24 917 q 24 974 15 946 q 56 1021 32 1001 l 56 1021 q 80 1035 67 1031 q 108 1042 93 1039 l 108 1042 q 130 1041 118 1043 q 154 1034 142 1039 q 177 1022 167 1029 q 193 1006 188 1014 l 193 1006 q 213 965 207 986 l 213 965 q 306 613 263 789 q 411 264 349 438 l 411 264 q 541 626 475 447 q 672 986 607 804 l 672 986 q 709 1035 683 1018 q 763 1052 735 1051 q 817 1037 792 1053 q 856 989 843 1021 l 856 989 q 862 956 861 974 q 856 922 863 938 l 856 922 q 711 524 785 721 q 569 124 638 326 l 569 124 q 553 69 560 96 q 532 18 547 42 z "},"W":{"ha":1238,"x_min":72,"x_max":1213,"o":"m 369 -53 l 369 -53 q 335 -97 357 -79 q 288 -120 314 -114 q 235 -121 263 -126 q 186 -97 208 -115 l 186 -97 q 160 -70 172 -85 q 142 -37 149 -56 l 142 -37 q 126 12 132 -14 q 115 63 121 38 l 115 63 q 87 265 94 163 q 78 470 79 367 q 78 676 76 574 q 78 882 79 779 l 78 882 q 77 912 78 897 q 75 942 76 926 l 75 942 q 73 964 74 953 q 75 986 72 975 l 75 986 q 103 1036 82 1017 q 152 1060 125 1056 q 206 1056 179 1065 q 251 1019 233 1046 l 251 1019 q 268 983 263 1003 q 274 943 274 963 l 274 943 q 272 935 274 939 q 271 929 271 932 l 271 929 q 273 640 276 783 q 276 350 269 496 l 276 350 q 342 483 307 418 q 414 611 378 547 l 414 611 q 458 686 436 649 q 504 760 481 724 l 504 760 q 529 794 515 778 q 558 825 543 811 l 558 825 q 613 849 583 846 q 667 840 642 851 q 708 804 692 828 q 724 749 724 781 l 724 749 q 722 722 724 735 q 722 697 721 710 l 722 697 q 725 687 724 692 q 728 675 726 682 l 728 675 q 760 584 743 629 q 793 494 776 539 l 793 494 q 842 370 817 432 q 899 249 868 308 l 899 249 q 933 631 911 439 q 1013 1004 956 822 l 1013 1004 q 1028 1043 1018 1022 l 1028 1043 q 1046 1066 1035 1057 q 1069 1082 1057 1075 l 1069 1082 q 1096 1092 1081 1090 q 1125 1092 1111 1093 l 1125 1092 q 1160 1080 1144 1090 q 1189 1056 1176 1069 l 1189 1056 q 1203 1030 1200 1044 q 1210 1000 1207 1015 l 1210 1000 q 1208 968 1213 990 q 1199 938 1203 946 l 1199 938 q 1194 929 1199 935 q 1190 921 1190 924 l 1190 921 q 1139 692 1157 808 q 1110 457 1121 575 l 1110 457 q 1095 253 1100 354 q 1081 50 1090 153 l 1081 50 q 1072 -5 1078 22 q 1050 -54 1065 -32 l 1050 -54 q 1026 -81 1039 -69 q 996 -100 1013 -93 l 996 -100 q 947 -109 972 -111 q 899 -94 921 -107 l 899 -94 q 868 -70 882 -85 q 843 -40 854 -56 l 843 -40 q 694 226 757 86 q 581 510 632 365 l 581 510 q 503 374 540 442 q 439 233 467 307 l 439 233 q 412 134 421 185 q 393 32 403 83 l 393 32 q 384 -11 389 11 q 369 -53 379 -33 z "},"X":{"ha":788,"x_min":24,"x_max":794,"o":"m 789 -60 l 789 -60 q 770 -103 785 -85 q 735 -132 756 -122 q 692 -142 715 -142 q 646 -129 668 -142 l 646 -129 q 629 -117 640 -126 q 607 -98 618 -108 q 586 -78 596 -87 q 572 -64 576 -68 l 572 -64 q 556 -31 561 -49 q 553 6 551 -12 l 553 6 q 553 12 553 8 q 553 17 554 15 l 553 17 q 468 174 511 96 q 381 331 425 251 l 381 331 q 325 203 353 267 q 268 76 297 140 l 268 76 q 242 24 257 50 q 208 -22 228 -1 l 208 -22 q 178 -45 194 -35 q 143 -58 163 -56 l 143 -58 q 95 -55 118 -62 q 56 -32 72 -47 q 32 6 40 -17 q 28 53 24 28 l 28 53 q 44 92 31 74 q 72 124 57 110 l 72 124 q 74 126 72 125 q 76 128 76 126 l 76 128 q 91 158 85 143 q 104 188 97 172 l 104 188 q 161 315 133 251 q 218 442 189 378 l 218 442 q 241 491 229 467 q 264 539 253 515 l 264 539 q 181 685 222 613 q 97 831 140 758 l 97 831 q 92 833 96 833 l 92 833 q 71 847 81 840 q 53 863 61 854 l 53 863 q 31 903 38 879 q 29 950 25 926 l 29 950 q 47 994 33 975 q 80 1026 61 1014 q 122 1042 99 1039 q 168 1036 144 1046 l 168 1036 q 208 1011 192 1028 l 208 1011 q 232 982 222 997 q 251 950 242 967 l 251 950 q 311 851 282 901 q 368 751 340 801 l 368 751 q 415 849 392 800 q 457 951 439 899 l 457 951 q 469 990 464 971 q 486 1026 475 1008 l 486 1026 q 514 1058 497 1044 q 550 1079 531 1071 l 550 1079 q 577 1085 563 1085 q 607 1082 592 1085 l 607 1082 q 659 1052 635 1078 q 685 999 683 1026 l 685 999 q 682 960 686 979 q 665 926 678 940 l 665 926 q 656 917 663 924 q 647 908 649 911 l 647 908 q 628 853 639 883 l 628 853 q 589 761 610 806 q 546 672 568 717 l 546 672 q 515 609 531 640 q 483 546 499 578 l 483 546 q 497 522 490 533 q 511 497 504 510 l 511 497 q 647 254 579 375 q 776 8 714 133 l 776 8 q 789 -60 794 -26 z "},"Y":{"ha":797,"x_min":51,"x_max":736,"o":"m 729 510 l 729 510 q 709 318 728 415 q 649 142 690 221 q 541 16 607 64 q 381 -28 475 -32 l 381 -28 q 311 -19 350 -26 q 235 2 272 -11 q 169 36 199 15 q 131 86 140 57 l 131 86 q 128 144 119 117 q 158 190 138 172 q 208 213 179 208 q 265 204 236 218 l 265 204 q 308 185 285 194 q 356 172 332 176 q 403 171 381 168 q 443 188 425 174 l 443 188 q 492 248 474 213 q 519 324 510 283 q 531 409 528 365 q 535 493 533 453 l 535 493 q 465 384 503 438 q 372 297 426 331 l 372 297 q 299 274 336 275 q 227 287 261 272 q 165 330 193 301 q 119 397 136 358 l 119 397 q 76 531 90 461 q 56 674 61 601 q 53 819 51 746 q 56 963 54 892 l 56 963 q 74 1028 57 1003 q 117 1064 92 1053 q 171 1072 143 1075 q 221 1051 199 1068 q 253 1006 243 1035 q 256 939 264 978 l 256 939 q 247 876 250 917 q 244 785 244 835 q 247 685 244 736 q 255 590 249 633 q 270 517 261 546 q 293 483 279 488 l 293 483 q 333 500 311 476 q 377 567 354 524 q 423 669 400 611 q 466 788 446 726 q 503 910 486 850 q 532 1017 521 969 l 532 1017 q 573 1079 542 1060 q 638 1095 604 1099 q 698 1067 671 1092 q 728 997 725 1042 l 728 997 q 733 753 736 875 q 729 510 731 632 z "},"Z":{"ha":775,"x_min":10,"x_max":764,"o":"m 314 -56 l 314 -56 q 251 -62 282 -60 q 189 -58 221 -65 l 189 -58 q 115 -10 142 -49 q 97 78 88 29 l 97 78 q 105 108 100 93 q 117 138 110 122 l 117 138 q 178 298 149 218 q 242 457 208 378 l 242 457 q 343 678 290 569 q 454 896 396 788 l 454 896 q 288 863 371 878 q 119 846 204 849 l 119 846 q 68 857 92 844 q 31 889 44 869 q 13 934 17 908 q 22 985 10 960 l 22 985 q 41 1012 29 1000 q 68 1031 53 1024 l 68 1031 q 96 1040 82 1038 q 125 1042 110 1042 l 125 1042 q 129 1042 128 1043 q 133 1042 131 1042 l 133 1042 q 313 1066 225 1050 q 489 1101 401 1082 l 489 1101 q 572 1116 529 1110 q 650 1107 614 1122 l 650 1107 q 718 1019 710 1082 l 718 1019 q 707 957 722 988 q 676 897 692 926 l 676 897 q 572 701 624 800 q 475 503 521 603 l 475 503 q 398 324 435 414 q 326 143 361 235 l 326 143 q 492 165 410 156 q 660 174 575 174 l 660 174 q 722 153 697 174 q 756 103 747 132 q 754 43 764 74 q 713 -7 744 13 l 713 -7 q 672 -24 694 -18 q 631 -24 650 -29 l 631 -24 q 626 -22 629 -24 q 621 -21 622 -21 l 621 -21 q 549 -25 585 -22 q 478 -32 514 -28 l 478 -32 q 395 -44 436 -37 q 314 -56 354 -50 z "},"[":{"ha":625,"x_min":78,"x_max":594,"o":"m 503 -110 l 503 -110 q 424 -117 472 -114 q 324 -117 375 -119 q 228 -104 274 -114 q 161 -75 183 -94 l 161 -75 q 121 -3 135 -53 q 100 106 107 47 q 91 221 93 164 q 88 311 89 278 l 88 311 q 81 534 83 422 q 80 757 78 646 q 92 979 82 868 q 122 1199 101 1090 l 122 1199 q 175 1289 133 1258 q 273 1331 217 1319 q 394 1339 329 1343 q 519 1324 460 1335 l 519 1324 q 565 1302 549 1318 q 588 1265 582 1286 q 590 1222 594 1244 q 572 1181 586 1199 q 535 1151 558 1163 q 483 1143 513 1140 l 483 1143 q 397 1147 440 1146 q 310 1147 354 1147 l 310 1147 q 278 820 279 985 q 279 490 276 656 l 279 490 q 283 278 281 385 q 300 68 285 172 l 300 68 q 344 68 313 67 q 412 71 376 69 q 478 72 447 72 q 522 68 510 72 l 522 68 q 570 27 556 54 q 581 -28 585 0 q 558 -81 578 -57 q 503 -110 538 -104 z "},"\\":{"ha":635,"x_min":17,"x_max":613,"o":"m 599 13 l 599 13 q 562 -36 588 -19 q 508 -53 536 -53 q 453 -36 479 -53 q 417 13 428 -19 l 417 13 q 231 494 328 257 q 26 967 135 732 l 26 967 q 17 1010 17 988 q 26 1051 17 1032 q 51 1084 35 1069 q 92 1104 68 1099 l 92 1104 q 156 1096 125 1111 q 203 1049 188 1081 l 203 1049 q 410 568 313 810 q 599 79 508 326 l 599 79 q 599 13 613 46 z "},"]":{"ha":558,"x_min":-37,"x_max":481,"o":"m 397 -75 l 397 -75 q 329 -104 374 -94 q 234 -117 285 -114 q 135 -117 183 -119 q 57 -110 86 -114 l 57 -110 q 1 -81 21 -104 q -22 -28 -19 -57 q -11 27 -25 0 q 36 68 3 54 l 36 68 q 80 72 49 72 q 147 71 111 72 q 214 68 182 69 q 258 68 246 67 l 258 68 q 276 278 275 172 q 281 490 278 385 l 281 490 q 283 655 282 572 q 281 820 283 738 q 272 985 279 903 q 249 1147 264 1067 l 249 1147 q 162 1147 204 1147 q 75 1143 119 1146 l 75 1143 q 3 1164 31 1139 q -31 1222 -25 1189 q -22 1285 -37 1254 q 39 1324 -6 1315 l 39 1324 q 164 1339 99 1335 q 286 1331 229 1343 q 384 1289 343 1319 q 436 1199 425 1258 l 436 1199 q 467 979 457 1090 q 478 757 476 868 q 478 534 481 646 q 471 311 475 422 l 471 311 q 467 221 469 278 q 458 106 465 164 q 438 -3 451 47 q 397 -75 424 -53 z "},"^":{"ha":715,"x_min":35,"x_max":681,"o":"m 658 781 l 658 781 q 680 723 681 753 q 664 669 679 693 q 620 631 649 644 q 557 624 592 617 l 557 624 q 523 635 539 626 q 492 656 507 644 l 492 656 q 465 683 476 667 q 442 715 453 699 l 442 715 q 397 792 418 753 q 354 871 375 831 l 354 871 q 315 808 335 839 q 276 744 296 776 l 276 744 q 243 699 261 721 q 204 658 225 676 l 204 658 q 158 635 183 640 q 108 635 132 629 q 67 658 85 642 q 40 701 49 675 l 40 701 q 36 738 35 718 q 46 774 38 757 l 46 774 q 83 813 58 797 l 83 813 q 106 839 97 824 l 106 839 q 158 922 133 879 q 208 1004 182 964 l 208 1004 q 258 1074 231 1040 q 325 1125 286 1107 l 325 1125 q 363 1135 343 1133 q 403 1129 383 1136 l 403 1129 q 438 1109 422 1122 q 463 1078 453 1096 l 463 1078 q 510 992 486 1035 q 557 904 533 949 l 557 904 q 582 858 569 881 q 610 814 594 836 l 610 814 q 658 781 642 804 z "},"_":{"ha":815,"x_min":31,"x_max":785,"o":"m 768 -1 l 768 -1 q 715 -41 749 -31 q 650 -39 682 -51 l 650 -39 q 556 -13 606 -21 q 457 -3 507 -6 l 457 -3 q 303 -10 379 0 q 150 -36 226 -21 l 150 -36 q 84 -27 115 -43 q 40 21 53 -11 l 40 21 q 32 64 31 42 q 43 104 33 86 q 70 136 53 122 q 111 154 88 150 l 111 154 q 252 178 182 168 q 393 192 322 189 l 393 192 q 551 185 472 194 q 703 149 629 175 l 703 149 q 721 142 713 146 q 738 133 729 138 l 738 133 q 770 98 756 124 q 783 53 785 72 l 783 53 q 778 24 782 38 q 768 -1 775 10 z "},"a":{"ha":893,"x_min":31,"x_max":867,"o":"m 764 65 l 764 65 q 694 53 732 49 q 628 85 656 58 l 628 85 q 576 155 596 114 q 544 239 556 196 l 544 239 q 464 167 508 199 q 368 119 419 135 l 368 119 q 244 117 307 103 q 133 172 182 132 l 133 172 q 63 271 86 213 l 63 271 q 41 338 47 303 q 33 407 35 372 l 33 407 q 45 532 31 469 q 88 651 60 594 l 88 651 q 189 799 128 731 q 329 910 250 868 l 329 910 q 499 953 408 953 l 499 953 q 618 931 558 954 l 618 931 q 676 901 649 919 q 728 861 704 883 l 728 861 q 778 868 754 869 l 778 868 q 819 853 800 865 q 849 825 838 842 q 863 788 860 808 q 860 746 867 767 l 860 746 q 824 656 844 700 q 779 571 803 613 l 779 571 q 778 569 779 569 q 778 568 778 569 l 778 568 q 732 401 750 486 l 732 401 q 726 319 725 361 q 744 240 728 276 l 744 240 q 750 237 746 238 q 757 235 754 236 l 757 235 q 800 204 779 224 l 800 204 q 820 153 818 185 q 804 100 822 121 l 804 100 q 786 81 796 89 q 764 65 776 72 z m 232 367 l 232 367 q 254 313 238 339 q 300 293 271 288 l 300 293 q 349 315 324 297 l 349 315 q 400 365 376 338 q 444 422 424 393 l 444 422 q 524 532 485 478 q 599 644 563 586 l 599 644 q 608 717 625 688 q 551 763 592 746 l 551 763 q 504 772 529 772 q 456 763 479 771 l 456 763 q 384 722 417 749 q 325 664 351 696 l 325 664 q 288 612 306 639 q 257 554 269 585 l 257 554 q 230 462 238 510 q 232 367 222 414 z "},"b":{"ha":900,"x_min":60,"x_max":868,"o":"m 808 235 l 808 235 q 703 98 767 154 q 563 13 639 42 q 403 -17 488 -17 q 238 17 319 -17 l 238 17 q 174 12 203 1 q 124 49 146 22 q 90 113 103 75 q 72 188 76 150 l 72 188 q 60 367 61 276 q 65 548 60 457 q 80 728 69 639 q 101 908 90 818 l 101 908 q 107 960 104 933 q 124 1007 110 986 l 124 1007 q 174 1049 143 1039 q 235 1051 206 1060 q 285 1019 264 1043 q 306 957 306 994 l 306 957 q 300 897 306 942 q 288 801 294 851 q 274 705 281 750 q 267 644 268 660 l 267 644 q 422 745 336 703 q 600 788 508 788 l 600 788 q 715 763 665 788 q 797 696 764 738 q 848 599 831 654 q 867 481 865 543 q 853 356 868 419 q 808 235 839 293 z m 285 210 l 285 210 q 435 181 361 169 q 565 240 510 193 q 651 360 621 286 q 668 519 681 433 l 668 519 q 648 570 664 547 q 604 593 632 593 l 604 593 q 515 574 563 594 q 423 521 467 553 q 344 449 379 489 q 293 369 310 408 l 293 369 q 278 292 278 333 q 285 210 279 250 z "},"c":{"ha":706,"x_min":33,"x_max":667,"o":"m 404 19 l 404 19 q 314 26 360 15 q 228 60 268 38 l 228 60 q 145 129 182 88 q 83 219 108 171 l 83 219 q 38 392 44 300 l 38 392 q 40 498 33 444 q 63 604 47 551 l 63 604 q 119 749 85 679 q 203 876 154 818 l 203 876 q 287 953 239 919 q 390 997 335 988 l 390 997 q 456 997 422 1003 q 518 974 490 990 l 518 974 q 601 902 565 946 q 660 810 638 858 l 660 810 q 667 777 667 794 q 665 743 667 760 l 665 743 q 651 703 663 722 q 625 669 640 685 l 625 669 q 608 658 618 663 q 589 650 599 653 l 589 650 q 532 658 561 640 q 488 700 503 675 l 488 700 q 474 724 482 711 q 455 747 465 736 q 433 762 444 757 q 408 764 421 767 l 408 764 q 389 756 397 761 q 372 743 381 750 l 372 743 q 328 697 347 724 q 294 643 310 671 l 294 643 q 261 573 275 610 q 240 499 247 536 l 240 499 q 231 446 233 472 q 233 393 228 419 l 233 393 q 253 336 239 364 q 289 289 267 308 l 289 289 q 339 258 311 267 l 339 258 q 406 256 374 247 l 406 256 q 453 276 431 261 q 493 310 475 290 l 493 310 q 506 322 500 317 q 518 332 511 326 l 518 332 q 554 347 531 343 q 593 343 578 350 l 593 343 q 623 324 608 336 q 646 297 638 313 l 646 297 q 663 240 661 271 q 654 179 665 208 l 654 179 q 640 154 649 165 q 619 132 631 143 l 619 132 q 522 57 578 88 q 404 19 465 26 z "},"d":{"ha":864,"x_min":29,"x_max":833,"o":"m 718 -4 l 718 -4 q 670 -41 703 -29 q 610 -43 638 -53 l 610 -43 q 584 -31 597 -37 q 563 -12 571 -24 l 563 -12 q 535 50 542 15 q 525 118 528 85 l 525 118 q 523 153 524 136 q 524 189 522 171 l 524 189 q 478 160 501 174 q 429 138 454 147 l 429 138 q 362 117 397 124 q 290 114 326 111 l 290 114 q 161 164 219 121 l 161 164 q 65 283 100 211 q 29 433 29 356 l 29 433 q 44 526 29 481 q 86 613 60 572 l 86 613 q 188 710 126 671 q 321 761 250 750 l 321 761 q 398 765 358 768 q 474 751 438 763 l 474 751 q 582 696 533 732 l 582 696 q 610 821 596 758 q 638 947 624 883 l 638 947 q 643 969 640 958 q 653 989 646 979 l 653 989 q 694 1026 669 1015 q 745 1035 719 1038 q 794 1016 771 1032 q 828 971 817 1000 l 828 971 q 833 940 833 956 q 829 908 832 924 l 829 908 q 792 747 811 828 q 758 585 774 667 l 758 585 q 738 438 746 511 q 725 290 731 365 l 725 290 q 719 204 722 247 q 721 118 715 161 l 721 118 q 724 106 721 111 q 729 93 728 100 l 729 93 q 735 61 733 78 q 733 29 736 44 l 733 29 q 726 11 731 19 q 718 -4 722 3 z m 229 393 l 229 393 q 263 339 242 357 q 311 318 285 321 q 367 326 338 315 q 425 357 397 336 l 425 357 q 480 402 456 379 q 513 449 504 425 q 509 497 521 472 q 457 547 497 521 l 457 547 q 399 569 431 563 q 338 567 367 575 l 338 567 q 285 541 308 558 q 245 500 261 524 q 224 449 229 476 q 229 393 219 422 z "},"e":{"ha":778,"x_min":32,"x_max":743,"o":"m 651 101 l 651 101 q 493 56 579 64 q 328 68 407 47 l 328 68 q 239 101 282 79 q 164 157 196 124 l 164 157 q 95 252 124 200 q 51 361 67 304 l 51 361 q 35 467 38 413 q 42 574 32 521 l 42 574 q 65 665 49 621 q 101 751 81 710 l 101 751 q 184 860 132 811 q 300 940 236 910 q 433 979 364 971 q 565 965 501 988 l 565 965 q 639 924 604 950 q 699 864 674 899 l 699 864 q 735 779 726 825 l 735 779 q 738 697 743 739 q 718 618 732 656 l 718 618 q 643 504 694 551 l 643 504 q 563 451 608 471 q 469 425 517 432 l 469 425 q 347 428 408 417 q 231 468 285 440 l 231 468 q 247 389 233 428 q 283 317 261 350 l 283 317 q 317 283 297 297 q 361 260 338 268 l 361 260 q 469 249 413 243 q 574 279 525 256 l 574 279 q 630 290 601 293 q 681 267 658 286 l 681 267 q 699 246 692 258 q 711 219 707 233 l 711 219 q 713 173 718 201 q 692 129 707 144 l 692 129 q 651 101 674 111 z m 285 661 l 285 661 q 361 624 319 636 q 441 617 403 613 q 507 644 479 622 q 543 710 535 667 l 543 710 q 535 753 547 736 q 503 777 524 769 q 457 785 482 785 q 411 778 432 785 l 411 778 q 334 734 371 763 q 276 667 297 706 l 276 667 q 281 664 279 665 l 281 664 q 285 661 283 661 z "},"f":{"ha":744,"x_min":21,"x_max":715,"o":"m 400 -18 l 400 -18 q 363 -49 385 -36 q 317 -58 340 -61 l 317 -58 q 289 -53 303 -57 q 264 -42 275 -50 l 264 -42 q 246 -23 254 -33 q 232 -1 238 -12 l 232 -1 q 226 14 228 6 q 222 29 225 22 l 222 29 q 184 158 204 94 q 149 288 164 221 l 149 288 q 132 286 138 288 l 132 286 q 68 301 97 282 q 28 351 39 319 l 28 351 q 24 395 21 374 q 38 435 26 417 q 68 465 50 453 q 110 479 86 476 l 110 479 q 115 480 113 479 q 119 481 117 481 l 119 481 q 113 585 114 533 q 119 690 113 638 l 119 690 q 151 816 126 754 q 218 926 175 878 l 218 926 q 305 993 254 967 q 408 1022 356 1019 l 408 1022 q 464 1018 436 1024 q 517 1001 492 1013 l 517 1001 q 604 947 564 982 q 672 868 644 911 l 672 868 q 683 822 683 851 q 672 776 683 793 l 672 776 q 654 754 664 765 q 632 736 644 743 l 632 736 q 567 728 601 721 q 511 763 533 735 l 511 763 q 488 789 500 776 q 461 811 475 801 l 461 811 q 438 823 450 818 q 413 826 425 828 l 413 826 q 376 812 393 825 q 348 779 360 799 q 328 737 336 760 q 317 694 319 714 l 317 694 q 308 597 308 646 q 311 497 307 547 l 311 497 q 458 509 386 504 q 604 525 531 514 l 604 525 q 661 515 635 528 q 703 478 688 503 l 703 478 q 713 451 710 465 q 715 422 715 438 l 715 422 q 712 401 715 413 q 701 378 708 389 q 685 358 694 367 q 668 344 676 349 l 668 344 q 634 334 651 338 q 600 328 617 331 l 600 328 q 473 316 536 321 q 344 306 410 311 l 344 306 q 378 191 360 247 q 411 76 396 135 l 411 76 q 417 27 418 53 q 400 -18 415 1 z "},"g":{"ha":875,"x_min":25,"x_max":831,"o":"m 428 -162 l 428 -162 q 358 -163 393 -167 q 289 -149 322 -160 l 289 -149 q 194 -102 239 -132 q 111 -35 149 -72 l 111 -35 q 73 7 92 -15 q 40 54 54 29 l 40 54 q 35 110 25 79 q 68 157 44 140 l 68 157 q 105 174 85 169 q 144 176 125 179 q 181 163 164 174 q 211 136 199 153 l 211 136 q 260 80 232 107 q 319 35 288 53 q 382 13 350 17 q 444 28 414 8 l 444 28 q 506 84 481 49 q 549 157 531 119 l 549 157 q 583 255 571 204 q 603 357 594 306 l 603 357 q 550 317 576 333 l 550 317 q 460 278 508 292 q 364 265 413 265 l 364 265 q 236 293 296 265 l 236 293 q 113 403 157 331 l 113 403 q 71 523 79 456 q 78 653 63 590 l 78 653 q 124 773 92 715 q 201 875 157 831 l 201 875 q 265 928 231 904 q 339 968 300 953 l 339 968 q 490 993 410 997 l 490 993 q 595 965 544 989 q 686 906 646 942 l 686 906 q 714 878 701 893 l 714 878 q 763 868 739 879 q 801 833 786 857 l 801 833 q 823 773 818 806 q 828 708 828 740 l 828 708 q 823 548 831 628 q 804 389 815 468 l 804 389 q 771 215 792 301 q 708 51 750 129 l 708 51 q 645 -40 682 3 q 563 -114 608 -83 l 563 -114 q 428 -162 501 -154 z m 274 514 l 274 514 q 309 473 286 486 q 360 459 332 460 q 416 467 388 458 q 468 496 444 476 l 468 496 q 531 560 499 521 q 578 642 563 600 q 582 724 593 685 q 514 789 571 764 l 514 789 q 461 799 490 800 q 407 786 432 797 l 407 786 q 309 702 349 758 q 263 581 269 646 l 263 581 q 264 547 261 564 q 274 514 267 529 z "},"h":{"ha":800,"x_min":68,"x_max":779,"o":"m 756 142 l 756 142 q 772 68 779 104 q 741 9 765 32 q 681 -18 717 -14 q 610 6 644 -22 l 610 6 q 574 62 589 21 q 549 156 560 103 q 528 271 538 210 q 511 388 519 332 q 494 488 503 443 q 474 557 485 533 l 474 557 q 442 594 458 588 q 408 589 425 600 q 376 552 392 578 q 347 494 360 526 q 323 424 333 461 q 308 353 313 386 l 308 353 q 290 212 299 282 q 274 71 282 142 l 274 71 q 242 8 268 31 q 183 -16 215 -14 q 122 0 151 -18 q 82 58 92 18 l 82 58 q 71 160 74 92 q 68 316 68 229 q 71 499 68 403 q 76 682 74 594 q 82 839 79 769 q 86 943 85 908 l 86 943 q 110 1008 88 983 q 165 1038 133 1032 q 226 1031 196 1044 q 272 981 257 1018 l 272 981 q 279 931 278 965 q 280 857 281 896 q 276 783 279 818 q 274 732 274 749 l 274 732 q 351 776 308 761 q 437 790 393 790 q 522 772 481 789 q 594 721 563 754 l 594 721 q 662 611 639 674 q 696 483 685 549 l 696 483 q 705 413 700 461 q 717 310 710 364 q 733 208 724 256 q 756 142 743 160 z "},"i":{"ha":346,"x_min":46,"x_max":304,"o":"m 231 849 l 231 849 q 184 846 207 842 q 143 863 161 850 q 113 894 125 875 q 100 938 101 914 l 100 938 q 110 987 99 965 q 142 1022 122 1008 q 188 1040 163 1036 q 239 1033 213 1043 l 239 1033 q 288 994 272 1021 q 303 938 304 967 q 283 883 301 908 q 231 849 265 857 z m 151 18 l 151 18 q 81 43 111 15 q 49 113 50 71 l 49 113 q 49 196 46 154 q 56 278 53 238 l 56 278 q 74 458 64 369 q 90 639 83 547 l 90 639 q 110 692 93 669 q 156 725 128 715 l 156 725 q 183 731 169 731 q 213 728 197 731 l 213 728 q 253 703 232 724 q 279 664 275 683 l 279 664 q 283 642 282 653 q 283 621 285 632 l 283 621 q 267 435 276 528 q 249 250 257 343 l 249 250 q 243 188 246 218 q 242 125 240 157 l 242 125 q 218 53 244 85 q 151 18 192 21 z "},"j":{"ha":517,"x_min":14,"x_max":474,"o":"m 296 808 l 296 808 q 228 826 256 804 q 192 881 201 849 q 194 947 183 913 q 239 1003 204 982 l 239 1003 q 295 1019 265 1019 q 349 1006 325 1019 q 387 967 372 992 q 399 911 401 943 l 399 911 q 388 875 397 893 q 363 843 378 857 q 331 819 349 829 q 296 808 314 810 z m 474 285 l 474 285 q 443 154 474 214 q 363 51 413 94 q 247 -17 313 7 q 111 -40 182 -42 l 111 -40 q 41 -10 65 -39 q 15 53 17 18 q 36 119 14 89 q 104 154 58 150 l 104 154 q 151 161 126 156 q 199 176 176 167 q 240 201 222 186 q 268 236 258 215 l 268 236 q 281 313 282 264 q 272 416 281 363 q 251 519 264 469 q 229 599 239 569 l 229 599 q 229 669 215 638 q 271 718 243 701 q 333 731 299 735 q 394 694 368 726 l 394 694 q 431 615 415 669 q 456 497 446 560 q 469 376 465 435 q 474 285 474 318 z "},"k":{"ha":833,"x_min":28,"x_max":807,"o":"m 151 -24 l 151 -24 q 103 -24 126 -31 q 62 -1 79 -17 q 36 38 44 15 q 32 88 28 61 l 32 88 q 72 329 51 210 q 115 569 93 449 l 115 569 q 149 744 132 657 q 176 918 167 831 l 176 918 q 204 978 179 954 q 264 1007 229 1003 l 264 1007 q 307 1001 286 1008 q 342 978 328 993 q 365 942 357 963 q 369 899 372 921 l 369 899 q 344 724 361 810 q 310 550 326 638 l 310 550 q 469 635 390 592 q 628 721 547 679 l 628 721 q 684 733 656 736 q 736 711 713 731 l 736 711 q 765 672 757 694 q 771 626 774 649 q 755 582 768 603 q 718 549 742 561 l 718 549 q 567 467 642 508 q 417 386 493 426 l 417 386 q 574 332 496 356 q 733 285 653 308 l 733 285 q 787 247 767 275 q 804 185 807 218 l 804 185 q 792 142 803 161 q 763 112 781 124 q 724 96 746 100 q 681 99 703 92 l 681 99 q 465 164 572 129 q 256 243 358 199 l 256 243 q 239 149 247 196 q 224 57 231 103 l 224 57 q 199 5 219 26 q 151 -24 179 -17 z "},"l":{"ha":386,"x_min":54,"x_max":369,"o":"m 350 25 l 350 25 q 300 -25 332 -12 q 233 -30 268 -37 q 166 2 199 -22 q 115 64 133 26 l 115 64 q 67 226 76 140 q 57 399 58 313 l 57 399 q 65 642 54 521 q 96 883 76 763 l 96 883 q 119 938 101 917 q 159 967 136 958 q 207 972 182 975 q 251 953 232 968 q 282 915 271 939 q 288 857 293 890 l 288 857 q 256 580 267 718 q 257 303 244 442 l 257 303 q 259 265 258 288 q 263 221 260 243 q 272 181 265 199 q 293 158 279 164 l 293 158 q 351 103 333 140 q 350 25 369 65 z "},"m":{"ha":1178,"x_min":32,"x_max":1136,"o":"m 1029 29 l 1029 29 q 974 10 1003 11 q 921 23 944 10 q 883 60 897 36 q 874 117 869 85 l 874 117 q 901 277 885 197 q 931 438 917 357 l 931 438 q 940 544 939 490 q 924 647 940 597 l 924 647 q 890 705 911 689 q 844 717 868 721 q 799 690 821 713 q 765 632 778 667 l 765 632 q 753 588 758 610 q 746 542 749 565 l 746 542 q 735 452 740 497 q 731 363 731 407 l 731 363 q 733 317 731 339 q 733 271 736 294 l 733 271 q 701 214 729 238 l 701 214 q 620 190 665 183 q 551 238 575 197 l 551 238 q 538 288 538 261 q 536 340 539 314 l 536 340 q 519 428 529 385 q 492 515 508 472 l 492 515 q 434 607 463 586 q 382 613 406 628 q 342 556 358 599 q 319 456 325 513 l 319 456 q 318 349 314 403 q 333 242 322 294 l 333 242 q 349 182 340 211 q 365 124 358 153 l 365 124 q 365 97 368 110 q 356 72 361 83 l 356 72 q 321 37 347 53 q 272 22 294 21 l 272 22 q 225 32 244 22 l 225 32 q 195 55 208 40 q 176 86 182 69 l 176 86 q 131 244 149 165 q 99 404 114 324 l 99 404 q 65 617 79 511 q 36 831 50 722 l 36 831 q 47 888 32 864 q 88 924 63 913 q 143 933 113 936 q 199 907 174 929 l 199 907 q 215 890 207 900 q 225 869 222 881 l 225 869 q 235 817 232 843 q 240 764 238 792 l 240 764 q 284 803 260 786 q 336 831 308 821 l 336 831 q 394 840 364 840 q 451 833 424 840 l 451 833 q 531 790 496 821 q 594 724 567 760 l 594 724 q 626 779 610 751 q 665 829 642 807 l 665 829 q 722 872 692 853 q 785 900 751 890 l 785 900 q 944 890 867 924 l 944 890 q 997 861 972 879 q 1043 821 1022 843 l 1043 821 q 1101 723 1081 778 q 1129 610 1122 668 l 1129 610 q 1134 515 1136 563 q 1125 421 1132 468 l 1125 421 q 1094 255 1111 338 q 1067 89 1078 172 l 1067 89 q 1053 56 1064 72 q 1029 29 1043 40 z "},"n":{"ha":861,"x_min":36,"x_max":817,"o":"m 303 68 l 303 68 q 260 45 286 51 q 211 46 233 39 l 211 46 q 143 113 161 61 l 143 113 q 83 377 103 243 q 51 646 63 511 l 51 646 q 46 708 49 678 q 40 771 43 739 l 40 771 q 49 826 36 800 q 88 868 61 853 l 88 868 q 114 877 100 875 q 143 881 128 879 l 143 881 q 188 865 163 881 q 221 831 213 849 l 221 831 q 234 780 232 807 q 239 726 236 753 l 239 726 q 342 825 281 783 q 471 883 403 867 l 471 883 q 549 895 508 894 q 626 885 589 896 l 626 885 q 724 833 681 869 l 724 833 q 776 767 754 806 q 806 689 797 729 l 806 689 q 815 574 817 632 q 810 458 814 517 l 810 458 q 792 297 804 376 q 761 139 781 218 l 761 139 q 733 90 754 110 q 682 65 711 69 l 682 65 q 633 70 656 61 q 595 97 611 79 q 573 138 579 114 q 574 186 567 161 l 574 186 q 609 388 599 286 q 621 593 619 490 l 621 593 q 618 631 621 613 q 608 667 615 649 l 608 667 q 560 700 594 699 q 494 688 526 701 l 494 688 q 410 627 447 668 q 357 538 374 586 l 357 538 q 328 435 340 488 q 315 331 315 383 l 315 331 q 324 233 315 282 q 333 135 332 183 l 333 135 q 325 99 335 115 q 303 68 315 82 z "},"o":{"ha":831,"x_min":28,"x_max":796,"o":"m 635 142 l 635 142 q 499 67 574 86 q 349 61 424 49 q 208 117 274 74 q 99 231 142 161 l 99 231 q 40 396 53 306 q 47 574 28 486 q 113 740 65 663 q 232 867 160 817 l 232 867 q 390 930 307 918 q 550 919 474 942 q 685 839 626 896 q 772 696 744 782 l 772 696 q 794 551 793 628 q 778 399 796 474 q 724 257 760 324 q 635 142 688 190 z m 278 313 l 278 313 q 322 277 296 292 q 377 256 349 263 q 434 253 406 250 q 486 272 463 257 l 486 272 q 538 324 517 293 q 573 392 560 356 q 593 467 586 428 q 600 543 600 507 l 600 543 q 569 661 600 614 q 492 726 538 708 q 393 731 446 744 q 297 665 340 717 l 297 665 q 251 584 268 631 q 229 489 233 538 q 237 394 225 440 q 278 313 249 347 z "},"p":{"ha":876,"x_min":26,"x_max":849,"o":"m 371 7 l 371 7 q 380 -44 383 -19 q 363 -87 376 -69 q 327 -117 349 -106 q 283 -130 306 -129 q 238 -120 260 -131 q 200 -83 215 -110 l 200 -83 q 175 -14 182 -53 l 175 -14 q 141 188 156 86 q 113 392 126 290 q 81 596 99 494 q 38 796 64 697 l 38 796 q 41 866 26 835 q 83 913 56 897 q 145 925 111 928 q 208 894 179 922 l 208 894 q 340 963 267 938 q 490 988 414 988 q 638 965 567 989 q 758 890 708 942 l 758 890 q 828 766 807 840 q 843 614 849 692 q 806 465 838 536 q 719 347 775 393 l 719 347 q 634 293 681 314 q 538 258 588 272 q 436 233 488 243 q 335 215 385 224 l 335 215 q 340 173 336 203 q 349 110 343 143 q 360 47 354 76 q 371 7 365 18 z m 269 644 l 269 644 q 290 526 281 585 q 307 408 299 468 l 307 408 q 397 425 344 414 q 499 454 449 436 q 588 498 549 472 q 639 561 626 524 l 639 561 q 650 619 647 588 q 649 682 653 651 q 631 738 644 713 q 592 776 617 764 l 592 776 q 535 793 565 790 q 473 792 504 796 q 411 778 442 788 q 354 756 381 768 l 354 756 q 323 737 339 749 q 294 710 307 725 q 274 678 281 694 q 269 644 267 661 z "},"q":{"ha":833,"x_min":26,"x_max":792,"o":"m 714 -149 l 714 -149 q 665 -183 694 -175 q 609 -184 636 -192 q 561 -155 582 -176 q 538 -100 540 -133 l 538 -100 q 531 119 528 10 q 540 338 535 229 l 540 338 q 406 286 476 297 q 269 290 335 275 q 150 348 204 306 q 65 460 96 390 l 65 460 q 31 629 26 546 q 71 783 36 713 q 165 907 106 854 q 297 982 225 960 q 448 992 369 1004 q 599 919 526 979 l 599 919 q 649 981 615 967 q 716 984 683 996 q 770 938 749 972 q 783 853 792 903 l 783 853 q 740 463 750 658 q 726 71 729 268 l 726 71 q 728 23 726 54 q 731 -42 731 -8 q 727 -105 731 -75 q 714 -149 724 -135 z m 244 535 l 244 535 q 296 481 263 494 q 367 474 329 468 q 442 505 406 481 q 503 565 478 529 l 503 565 q 529 635 524 597 q 525 705 535 672 q 490 762 515 738 q 428 793 465 786 l 428 793 q 330 782 374 803 q 260 722 286 761 q 227 633 233 683 q 244 535 221 583 z "},"r":{"ha":619,"x_min":49,"x_max":606,"o":"m 325 133 l 325 133 q 308 62 332 89 q 249 29 283 35 q 180 41 214 24 q 133 103 146 58 l 133 103 q 69 453 89 276 q 49 807 49 629 l 49 807 q 60 861 49 835 q 90 907 71 888 l 90 907 q 160 938 122 938 q 227 920 199 939 q 268 867 256 901 q 260 794 281 833 l 260 794 q 382 871 313 842 q 522 893 451 900 l 522 893 q 577 866 557 890 q 601 810 597 842 q 592 750 606 779 q 546 708 579 721 l 546 708 q 500 700 524 701 q 456 690 476 699 l 456 690 q 388 647 419 678 q 331 574 356 615 q 292 490 307 533 q 276 408 278 446 l 276 408 q 294 270 275 339 q 325 133 314 201 z "},"s":{"ha":772,"x_min":31,"x_max":743,"o":"m 381 24 l 381 24 q 303 24 342 22 q 228 33 265 26 l 228 33 q 172 49 200 39 q 121 74 144 58 l 121 74 q 100 91 110 82 q 83 113 90 100 l 83 113 q 69 178 63 146 q 97 233 75 211 q 152 261 119 254 q 218 249 185 268 l 218 249 q 230 239 221 246 q 243 231 239 232 l 243 231 q 281 223 261 225 q 319 218 300 221 l 319 218 q 392 219 356 215 q 464 238 429 224 l 464 238 q 502 259 483 246 q 532 292 521 272 l 532 292 q 545 351 550 319 q 515 404 540 383 l 515 404 q 450 440 488 428 q 375 458 413 451 l 375 458 q 261 478 318 468 q 151 514 204 489 l 151 514 q 106 542 128 525 q 68 583 83 560 l 68 583 q 51 616 58 599 q 39 653 43 633 l 39 653 q 42 740 31 696 q 72 824 53 783 l 72 824 q 201 947 115 907 l 201 947 q 328 983 261 975 q 463 981 396 992 l 463 981 q 565 944 515 972 q 647 875 615 917 l 647 875 q 657 855 653 867 q 662 830 661 843 q 660 803 663 817 q 654 782 658 790 l 654 782 q 638 760 647 771 q 618 740 629 749 l 618 740 q 598 731 610 735 q 573 726 586 728 q 547 727 560 725 q 525 733 533 729 l 525 733 q 488 761 506 744 q 449 785 471 778 l 449 785 q 367 792 410 797 q 286 772 325 788 l 286 772 q 249 747 261 763 q 238 717 236 732 q 256 688 240 701 q 304 668 272 675 l 304 668 q 363 658 333 663 q 421 649 392 654 l 421 649 q 522 621 472 639 q 614 574 571 603 l 614 574 q 675 518 647 550 q 718 450 703 486 l 718 450 q 739 323 743 390 q 703 199 735 256 l 703 199 q 676 159 692 178 q 643 124 661 140 l 643 124 q 521 51 590 76 q 381 24 451 26 z "},"t":{"ha":840,"x_min":8,"x_max":815,"o":"m 538 -1 l 538 -1 q 466 3 501 -4 q 399 26 431 11 l 399 26 q 344 60 369 40 q 299 104 319 81 l 299 104 q 247 177 269 138 q 210 258 225 217 l 210 258 q 160 490 171 368 l 160 490 q 156 531 157 510 q 154 572 156 551 l 154 572 q 139 571 147 571 q 124 568 131 571 l 124 568 q 65 581 94 564 q 25 628 36 599 l 25 628 q 29 705 8 668 q 92 751 50 742 l 92 751 q 126 756 110 754 q 161 758 143 758 l 161 758 q 173 862 165 811 q 189 964 181 913 l 189 964 q 214 1014 194 994 q 259 1040 233 1033 q 312 1040 285 1047 q 360 1011 339 1033 l 360 1011 q 380 976 375 996 q 382 935 385 956 l 382 935 q 357 772 367 853 l 357 772 q 485 785 422 779 q 614 796 549 790 l 614 796 q 669 785 644 799 q 706 751 693 772 q 720 703 719 729 q 703 651 721 676 l 703 651 q 672 624 692 635 q 632 611 651 614 l 632 611 q 490 598 561 604 q 349 585 419 592 l 349 585 l 349 563 q 379 364 353 457 l 379 364 q 403 296 390 329 q 439 233 417 263 l 439 233 q 464 206 450 218 q 496 189 478 194 l 496 189 q 515 185 503 186 q 533 186 528 183 l 533 186 q 566 214 553 197 q 589 250 579 231 l 589 250 q 608 313 603 281 q 618 379 614 346 l 618 379 q 664 444 625 422 l 664 444 q 718 459 690 460 q 768 444 746 458 q 803 407 790 431 q 811 353 815 383 l 811 353 q 794 259 804 306 q 764 169 785 213 l 764 169 q 712 92 743 128 q 642 32 681 56 l 642 32 q 592 9 618 17 q 538 -1 565 1 z "},"u":{"ha":1026,"x_min":35,"x_max":1011,"o":"m 443 151 l 443 151 q 343 118 394 124 q 243 127 292 113 q 152 174 194 142 q 82 254 110 206 l 82 254 q 47 344 58 296 q 38 440 35 392 l 38 440 q 63 635 43 539 q 110 824 82 731 l 110 824 q 160 888 124 872 q 233 894 197 904 q 290 853 268 885 q 297 772 311 821 l 297 772 q 275 688 289 743 q 250 573 261 633 q 234 458 239 513 q 240 374 229 403 l 240 374 q 267 333 250 347 q 304 317 283 319 q 347 325 325 315 q 386 356 368 335 l 386 356 q 508 557 463 446 q 581 783 554 668 l 581 783 q 622 851 592 831 q 686 869 653 872 q 747 838 719 865 q 782 764 775 811 l 782 764 q 792 672 788 718 q 806 580 797 625 q 828 491 814 535 q 867 408 843 447 l 867 408 q 877 392 871 401 q 891 372 883 382 q 907 353 899 361 q 924 344 915 346 l 924 344 q 988 308 965 338 q 1010 246 1010 279 q 990 185 1011 213 q 926 153 969 157 l 926 153 q 835 170 879 147 q 756 231 792 193 q 693 317 719 269 q 653 411 667 365 l 653 411 q 565 265 615 336 q 443 151 515 193 z "},"v":{"ha":868,"x_min":21,"x_max":849,"o":"m 471 28 l 471 28 q 360 43 411 10 l 360 43 q 279 116 314 72 q 221 208 244 160 l 221 208 q 115 465 157 332 q 31 731 74 597 l 31 731 q 28 787 21 758 q 58 835 36 815 l 58 835 q 83 850 69 844 q 110 858 96 856 l 110 858 q 157 851 129 863 q 196 825 185 840 l 196 825 q 218 779 213 801 l 218 779 q 294 541 257 660 q 386 310 331 422 l 386 310 q 396 292 392 300 q 406 274 400 283 l 406 274 q 528 608 464 443 q 661 939 593 774 l 661 939 q 700 986 674 971 q 755 1000 726 1001 q 808 982 783 999 q 844 932 833 965 l 844 932 q 849 899 849 917 q 842 865 849 881 l 842 865 q 710 539 774 701 q 589 210 647 376 l 589 210 q 569 147 578 178 q 543 89 560 117 l 543 89 q 513 51 531 68 q 471 28 494 35 z "},"w":{"ha":1250,"x_min":47,"x_max":1206,"o":"m 600 256 l 600 256 q 528 140 572 193 q 431 56 485 88 q 318 19 378 24 q 199 46 258 14 l 199 46 q 128 108 158 69 q 82 192 97 147 l 82 192 q 58 292 67 233 q 49 417 50 350 q 53 553 47 483 q 70 687 58 622 q 101 806 82 751 q 144 897 119 861 l 144 897 q 207 938 171 935 q 272 923 243 942 q 313 868 300 904 q 304 790 325 832 l 304 790 q 258 652 274 729 q 238 499 242 575 q 244 356 235 422 q 272 253 253 290 q 319 215 290 215 q 388 271 349 215 l 388 271 q 445 388 425 325 q 479 516 465 450 q 507 647 493 582 q 547 774 521 713 l 547 774 q 596 825 564 811 q 659 831 628 839 q 713 797 690 824 q 733 729 736 771 l 733 729 q 735 598 731 669 q 752 458 740 526 q 783 331 764 389 q 828 240 803 274 q 884 207 853 207 q 953 254 915 207 l 953 254 q 998 367 986 296 q 1008 519 1010 439 q 992 674 1006 599 q 961 800 979 750 l 961 800 q 960 869 947 838 q 1001 919 974 901 q 1061 934 1028 936 q 1122 903 1094 932 l 1122 903 q 1150 849 1138 886 q 1172 767 1163 811 q 1188 683 1182 724 q 1197 619 1194 642 l 1197 619 q 1204 509 1203 565 q 1199 397 1206 453 q 1178 288 1193 342 q 1139 186 1164 235 l 1139 186 q 1056 85 1107 125 q 944 29 1004 44 q 824 26 885 14 q 711 83 763 39 l 711 83 q 645 162 671 117 q 600 256 619 207 z "},"x":{"ha":814,"x_min":36,"x_max":786,"o":"m 763 167 l 763 167 q 783 103 786 136 q 761 44 781 69 q 709 10 742 19 q 642 18 676 1 l 642 18 q 619 35 629 25 q 597 56 608 44 l 597 56 q 478 198 535 125 q 368 349 421 271 l 368 349 q 307 256 336 303 q 250 161 278 210 l 250 161 q 254 139 254 150 q 253 117 254 128 l 253 117 q 247 96 253 107 q 233 74 242 85 q 215 56 225 64 q 196 44 206 47 l 196 44 q 183 40 189 42 q 171 38 178 39 l 171 38 q 124 40 147 33 q 84 60 101 46 q 56 95 67 75 q 43 140 44 115 l 43 140 q 57 208 42 175 q 90 272 72 242 l 90 272 q 112 308 101 290 q 133 346 122 326 l 133 346 q 191 434 161 390 q 253 521 221 478 l 253 521 q 154 671 203 596 q 54 821 106 746 l 54 821 q 36 876 36 846 q 51 931 36 906 l 51 931 q 88 964 65 953 q 133 974 110 975 q 178 963 156 974 q 215 929 200 951 l 215 929 q 297 808 257 868 q 378 685 338 747 l 378 685 q 492 828 435 757 q 604 974 549 899 l 604 974 q 659 1010 625 1001 q 724 1004 693 1019 l 724 1004 q 758 977 744 994 q 777 939 772 960 q 778 896 782 918 q 760 856 774 874 l 760 856 q 625 684 693 768 q 490 513 557 600 l 490 513 q 609 347 549 428 q 739 189 669 265 l 739 189 q 751 178 744 182 q 763 167 757 174 z "},"y":{"ha":796,"x_min":39,"x_max":743,"o":"m 743 310 l 743 310 q 711 163 740 229 q 633 47 682 96 q 522 -31 585 -1 q 392 -65 460 -60 q 255 -49 324 -69 q 125 25 186 -28 l 125 25 q 91 91 89 56 q 117 151 93 126 q 181 183 142 176 q 261 165 221 190 l 261 165 q 365 133 313 132 q 458 160 417 133 q 524 236 499 188 q 549 347 550 285 l 549 347 q 458 290 510 311 q 353 264 407 268 q 249 274 300 260 q 158 325 197 289 l 158 325 q 81 444 108 371 q 46 597 53 517 q 53 758 39 678 q 99 899 67 838 l 99 899 q 155 944 119 938 q 222 933 190 950 q 269 883 253 917 q 269 807 286 849 l 269 807 q 254 760 260 783 q 246 713 249 736 l 246 713 q 241 620 240 668 q 253 533 242 572 q 290 473 265 494 q 357 461 314 451 l 357 461 q 430 510 400 471 q 472 590 460 549 l 472 590 q 493 727 490 657 q 496 868 496 797 l 496 868 q 519 933 496 908 q 572 963 542 957 q 635 956 603 969 q 683 907 667 943 l 683 907 q 703 836 694 882 q 719 733 713 790 q 731 612 726 675 q 739 490 736 549 q 742 384 742 432 q 743 310 743 336 z "},"z":{"ha":678,"x_min":31,"x_max":647,"o":"m 581 25 l 581 25 q 489 5 549 13 q 363 -5 429 -3 q 237 -3 297 -7 q 144 11 176 1 l 144 11 q 83 45 108 22 q 44 99 57 68 q 32 164 31 129 q 51 232 33 199 l 51 232 q 134 372 89 304 q 226 507 179 440 q 320 640 272 574 q 413 775 368 707 l 413 775 q 285 773 349 776 q 157 769 222 769 l 157 769 q 102 784 124 769 q 69 821 81 799 q 58 868 58 843 q 69 915 58 893 q 102 950 81 936 q 157 964 124 964 l 157 964 q 240 966 183 964 q 360 968 297 968 q 478 965 422 968 q 557 950 533 961 l 557 950 q 608 910 589 936 q 633 851 626 883 q 633 785 639 819 q 608 721 626 750 l 608 721 q 521 588 567 653 q 428 457 475 522 q 335 326 381 392 q 250 192 290 260 l 250 192 q 390 195 321 189 q 529 210 458 201 l 529 210 q 601 193 572 215 q 638 139 629 171 q 634 74 647 107 q 581 25 621 40 z "},"{":{"ha":621,"x_min":36,"x_max":611,"o":"m 549 -121 l 549 -121 q 453 -133 504 -136 q 355 -110 403 -129 q 268 -60 307 -92 q 207 14 229 -28 l 207 14 q 184 76 192 43 q 174 144 176 110 q 173 213 171 178 q 178 282 175 249 l 178 282 q 181 317 179 294 q 183 363 182 339 q 181 408 183 388 q 171 440 178 429 l 171 440 q 147 465 161 454 q 119 484 133 475 q 90 503 104 493 q 64 526 75 513 l 64 526 q 42 607 36 563 q 86 678 49 651 l 86 678 q 127 712 107 693 q 163 753 147 731 q 188 799 178 775 q 196 849 197 824 l 196 849 q 190 929 194 889 q 181 1010 185 969 q 176 1090 176 1050 q 185 1168 176 1129 l 185 1168 q 238 1267 199 1222 q 325 1339 276 1313 l 325 1339 q 392 1367 356 1356 q 463 1379 428 1378 q 527 1369 497 1381 q 574 1326 557 1357 l 574 1326 q 587 1275 589 1300 q 570 1229 585 1250 q 531 1196 556 1208 q 476 1182 507 1183 l 476 1182 q 419 1167 449 1179 q 376 1131 389 1156 l 376 1131 q 369 1078 368 1114 q 375 1001 371 1042 q 385 923 379 960 q 390 868 390 886 l 390 868 q 364 725 393 796 q 288 600 335 654 l 288 600 q 360 475 339 550 q 376 329 381 400 l 376 329 q 372 276 375 310 q 368 206 368 242 q 372 138 368 169 q 389 92 376 106 l 389 92 q 415 77 397 82 q 452 69 432 72 q 492 66 472 67 q 524 65 511 65 l 524 65 q 581 38 560 63 q 607 -19 603 13 q 597 -80 611 -50 q 549 -121 583 -110 z "},"}":{"ha":578,"x_min":-33,"x_max":542,"o":"m 371 14 l 371 14 q 310 -60 350 -28 q 224 -110 271 -92 q 125 -133 176 -129 q 29 -121 74 -136 l 29 -121 q -19 -80 -6 -110 q -29 -19 -33 -50 q -3 38 -25 13 q 54 65 18 63 l 54 65 q 86 66 67 65 q 126 69 106 67 q 165 77 147 72 q 190 92 182 82 l 190 92 q 207 138 203 106 q 210 206 211 169 q 207 276 210 242 q 203 329 204 310 l 203 329 q 219 475 199 400 q 290 600 239 550 l 290 600 q 215 725 243 654 q 189 868 186 796 l 189 868 q 194 923 189 886 q 204 1001 200 960 q 209 1078 208 1042 q 201 1131 210 1114 l 201 1131 q 159 1167 189 1156 q 101 1182 129 1179 l 101 1182 q 47 1196 72 1183 q 8 1229 22 1208 q -9 1275 -7 1250 q 4 1326 -11 1300 l 4 1326 q 51 1369 22 1357 q 115 1379 81 1381 q 186 1367 150 1378 q 254 1339 222 1356 l 254 1339 q 342 1267 303 1313 q 393 1168 381 1222 l 393 1168 q 403 1090 403 1129 q 399 1010 403 1050 q 389 929 394 969 q 382 849 383 889 l 382 849 q 391 799 382 824 q 416 753 400 775 q 452 712 432 731 q 493 678 472 693 l 493 678 q 535 607 529 651 q 514 526 542 563 l 514 526 q 489 503 503 513 q 460 484 475 493 q 431 465 444 475 q 407 440 417 454 l 407 440 q 398 408 400 429 q 397 363 396 388 q 399 317 397 339 q 401 282 400 294 l 401 282 q 406 213 404 249 q 405 144 407 178 q 394 76 403 110 q 371 14 386 43 z "},"~":{"ha":857,"x_min":32,"x_max":821,"o":"m 217 369 l 217 369 q 149 330 186 333 q 83 346 111 326 q 43 402 54 365 q 56 481 32 439 l 56 481 q 78 527 68 503 q 99 575 89 551 q 122 621 110 599 q 151 663 135 643 l 151 663 q 237 713 190 706 q 333 704 283 721 q 429 653 382 688 q 517 576 476 618 l 517 576 q 531 560 524 568 q 547 545 539 551 q 562 538 554 539 q 578 544 569 536 l 578 544 q 602 583 593 561 q 620 628 611 606 q 641 669 629 650 q 672 701 653 689 l 672 701 q 732 715 703 719 q 782 690 761 710 q 812 640 803 671 q 811 575 821 610 l 811 575 q 756 463 792 514 q 674 380 721 411 q 574 343 628 349 q 464 369 519 338 l 464 369 q 428 398 453 375 q 376 447 404 421 q 324 494 349 472 q 288 521 299 517 l 288 521 q 256 442 268 483 q 217 369 243 401 z "}," ":{"ha":556,"x_min":null,"x_max":null,"o":""},"¢":{"ha":771,"x_min":53,"x_max":724,"o":"m 522 -44 l 522 -44 q 478 -62 507 -58 q 431 -57 450 -67 l 431 -57 q 395 -33 411 -49 q 371 1 379 -18 l 371 1 q 352 67 358 33 q 340 133 346 100 l 340 133 q 282 146 308 135 l 282 146 q 178 213 224 167 q 107 314 133 260 l 107 314 q 60 454 74 383 l 60 454 q 53 530 53 492 q 58 604 53 568 l 58 604 q 67 645 61 625 q 81 685 74 665 l 81 685 q 110 749 93 718 q 151 807 128 781 l 151 807 q 195 844 171 828 q 246 871 219 860 l 246 871 q 240 926 243 899 q 229 982 236 954 l 229 982 q 228 1004 226 992 q 235 1029 231 1017 q 247 1052 240 1042 q 261 1068 253 1063 l 261 1068 q 311 1092 286 1086 l 311 1092 q 359 1087 331 1097 q 399 1060 388 1076 l 399 1060 q 413 1038 406 1049 q 422 1014 419 1026 l 422 1014 q 431 962 428 988 q 438 908 435 936 l 438 908 l 472 908 q 535 897 504 906 q 593 871 567 889 l 593 871 q 637 824 619 851 q 665 765 654 796 l 665 765 q 668 760 667 763 q 671 754 669 757 l 671 754 q 676 738 674 746 q 681 719 679 729 l 681 719 q 661 653 683 679 q 608 619 639 628 q 544 623 576 611 q 493 671 511 635 l 493 671 q 485 692 488 682 q 476 713 482 701 l 476 713 q 426 714 451 715 q 374 707 400 713 l 374 707 q 336 697 354 703 q 301 681 318 692 l 301 681 q 281 657 290 674 q 265 622 272 640 q 253 583 258 603 q 249 551 249 564 l 249 551 q 258 462 246 507 q 294 378 271 417 l 294 378 q 315 351 303 363 q 343 332 328 340 l 343 332 q 358 328 350 328 q 372 328 365 328 l 372 328 q 407 335 385 328 q 453 355 429 343 q 497 378 476 367 q 529 397 518 390 l 529 397 q 555 436 538 421 q 594 458 572 451 q 638 460 615 464 q 681 440 661 456 l 681 440 q 720 368 717 413 q 697 288 724 324 l 697 288 q 667 258 683 271 q 633 233 651 244 l 633 233 q 539 181 585 203 l 539 181 q 535 174 536 176 q 531 167 533 171 l 531 167 q 534 150 532 163 q 539 124 536 138 q 544 99 542 111 q 549 82 547 86 l 549 82 q 554 69 551 75 q 560 57 557 64 l 560 57 q 561 19 565 39 q 549 -15 557 0 l 549 -15 q 537 -31 544 -25 q 522 -44 529 -37 z "},"£":{"ha":1015,"x_min":38,"x_max":988,"o":"m 676 -21 l 676 -21 q 513 13 588 -25 l 513 13 q 433 57 474 29 l 433 57 q 352 22 396 32 q 263 15 308 11 q 176 34 218 18 q 101 79 135 50 l 101 79 q 63 124 79 99 q 42 178 46 150 l 42 178 q 43 235 38 206 q 64 289 49 265 l 64 289 q 158 356 99 338 l 158 356 q 253 362 203 368 q 343 335 303 356 l 343 335 q 343 351 343 343 q 340 367 343 358 l 340 367 q 332 402 336 385 q 322 438 328 419 l 322 438 q 282 437 303 438 q 240 436 261 436 l 240 436 q 165 456 192 435 q 135 501 138 476 q 153 548 132 526 q 224 569 175 569 l 224 569 q 251 569 235 569 q 289 571 268 569 l 289 571 q 280 617 283 594 q 274 664 276 640 l 274 664 q 281 792 268 726 q 331 911 293 858 l 331 911 q 405 977 358 950 q 500 1008 451 1004 l 500 1008 q 628 992 568 1014 q 733 931 689 971 q 803 834 778 890 q 824 714 828 778 l 824 714 q 806 673 822 694 q 769 644 789 651 l 769 644 q 714 636 743 635 l 714 636 q 663 658 688 638 q 633 704 638 679 l 633 704 q 630 733 631 719 q 624 761 629 747 l 624 761 q 597 801 615 783 q 556 825 579 818 l 556 825 q 503 819 522 835 q 475 776 483 804 q 467 711 467 747 q 472 643 467 675 l 472 643 q 478 610 475 626 q 486 576 482 593 l 486 576 q 569 576 528 576 q 647 575 611 576 q 710 571 682 574 q 754 564 739 568 l 754 564 q 792 534 782 556 q 797 490 801 513 q 772 451 792 468 q 724 436 753 435 l 724 436 q 623 438 674 438 q 522 439 572 439 l 522 439 q 527 420 525 429 q 532 401 529 411 l 532 401 q 536 363 536 382 l 536 363 q 539 288 539 325 q 533 213 539 250 l 533 213 q 565 193 549 201 q 597 176 581 185 l 597 176 q 685 163 640 154 l 685 163 q 756 190 722 169 q 814 236 789 210 l 814 236 q 829 250 818 242 l 829 250 q 874 267 844 263 q 921 264 903 271 l 921 264 q 965 233 949 250 l 965 233 q 983 191 979 218 q 979 147 988 164 l 979 147 q 954 111 971 128 l 954 111 q 874 46 918 75 q 781 0 829 17 l 781 0 q 676 -21 731 -17 z "},"¤":{"ha":1004,"x_min":47,"x_max":954,"o":"m 182 107 l 182 107 q 136 103 161 97 q 92 119 111 108 l 92 119 q 67 147 76 129 q 53 183 57 164 l 53 183 q 57 231 47 207 q 85 271 67 256 l 85 271 q 116 303 101 286 q 149 335 131 319 l 149 335 q 165 349 157 342 q 182 363 174 356 l 182 363 q 145 510 147 432 q 175 660 143 589 l 175 660 q 184 678 179 669 q 194 697 189 688 l 194 697 q 159 726 176 713 q 124 754 142 740 l 124 754 q 87 809 96 775 q 93 875 78 843 l 93 875 q 121 909 103 896 q 159 926 139 922 q 201 926 179 931 q 242 908 222 922 l 242 908 q 290 870 265 889 q 338 832 314 851 l 338 832 q 431 863 385 854 l 431 863 q 563 863 500 875 q 676 818 625 850 l 676 818 q 794 911 739 863 l 794 911 q 849 931 815 929 q 904 915 882 932 l 904 915 q 919 903 911 910 q 932 890 926 897 l 932 890 q 951 822 954 860 q 919 760 947 785 l 919 760 q 883 730 901 744 q 844 700 864 715 l 844 700 q 826 687 835 693 q 810 674 818 681 l 810 674 q 845 533 842 608 q 817 382 849 458 l 817 382 q 813 373 814 378 q 808 364 811 368 l 808 364 q 858 326 833 344 q 906 288 882 307 l 906 288 q 938 240 929 268 q 940 185 947 213 l 940 185 q 916 142 933 160 q 876 118 899 125 q 830 115 854 111 q 785 135 806 118 l 785 135 q 740 170 763 153 q 694 206 718 188 l 694 206 q 685 213 689 208 q 675 219 681 217 l 675 219 l 667 215 q 475 171 578 164 l 475 171 q 317 218 392 175 l 317 218 q 299 206 308 213 q 282 193 290 200 l 282 193 q 235 147 257 172 q 182 107 213 121 z m 399 397 l 399 397 q 472 365 432 371 q 548 373 513 360 q 611 415 583 386 q 647 486 639 444 l 647 486 q 640 574 657 533 q 592 641 624 615 q 516 674 560 667 q 429 660 472 681 l 429 660 q 368 608 390 642 q 341 538 346 575 q 351 462 336 500 q 399 397 365 424 z "},"¥":{"ha":890,"x_min":60,"x_max":847,"o":"m 315 -10 l 315 -10 q 261 -3 290 -11 l 261 -3 q 217 33 236 6 q 203 86 199 60 l 203 86 q 213 135 206 111 q 228 182 219 158 l 228 182 q 138 186 174 185 l 138 186 q 100 208 115 189 l 100 208 q 85 244 86 225 q 91 281 83 264 q 114 308 99 297 q 150 317 129 318 l 150 317 q 203 315 168 315 q 281 314 238 315 l 281 314 q 292 341 286 328 q 304 368 297 354 l 304 368 q 206 370 251 369 q 129 374 161 371 l 129 374 q 105 380 117 374 q 83 394 93 386 l 83 394 q 66 431 68 411 q 74 467 64 450 q 101 494 83 483 q 143 504 119 506 l 143 504 q 206 501 164 501 q 296 501 247 501 l 296 501 l 283 514 q 213 601 244 554 q 153 696 181 647 l 153 696 q 105 790 126 742 q 68 889 83 838 l 68 889 q 65 900 65 894 q 63 913 64 906 l 63 913 q 72 958 60 932 q 101 993 85 983 l 101 993 q 127 1006 114 1000 q 154 1013 140 1011 l 154 1013 q 217 994 189 1015 q 254 942 246 974 l 254 942 q 278 876 264 908 q 308 814 292 844 l 308 814 q 374 704 339 756 l 374 704 q 404 665 389 685 q 439 629 419 646 l 439 629 q 549 819 493 725 q 661 1007 604 913 l 661 1007 q 706 1048 678 1036 q 763 1055 735 1060 q 813 1031 790 1050 q 842 978 835 1011 l 842 978 q 829 914 847 943 l 829 914 q 707 707 768 810 q 588 499 646 604 l 588 499 q 667 496 628 497 q 747 492 707 494 l 747 492 q 792 475 774 490 q 814 436 811 460 l 814 436 q 797 382 819 404 q 740 361 774 360 l 740 361 q 642 365 700 364 q 518 365 585 365 l 518 365 q 505 340 511 353 q 493 313 499 326 l 493 313 q 667 304 579 310 l 667 304 q 705 288 689 303 q 724 250 721 274 l 724 250 q 721 220 725 235 q 708 195 717 206 q 688 179 700 185 q 661 175 675 174 l 661 175 q 560 178 621 178 q 433 179 500 178 l 433 179 q 421 144 426 161 q 408 110 415 128 l 408 110 q 398 78 401 94 q 389 46 394 61 l 389 46 q 358 10 382 28 q 315 -10 335 -7 z "},"­":{"ha":0,"x_min":null,"x_max":null,"o":""},"±":{"ha":683,"x_min":49,"x_max":629,"o":"m 450 540 l 450 540 q 438 484 451 507 q 402 449 424 461 q 356 437 381 438 q 308 447 331 436 q 272 478 286 457 q 256 533 257 500 l 256 533 q 253 580 254 557 q 253 626 253 603 l 253 626 q 208 624 229 625 q 163 621 186 624 l 163 621 q 92 640 119 617 q 58 696 65 664 q 66 760 51 728 q 121 808 81 793 l 121 808 q 169 818 136 815 q 243 824 201 821 l 243 824 q 240 862 242 843 q 236 900 239 881 l 236 900 q 253 971 231 943 q 308 1007 276 999 q 374 1001 340 1015 q 422 947 407 988 l 422 947 q 433 899 429 932 q 440 826 438 867 l 440 826 q 492 825 469 825 q 528 825 514 825 l 528 825 q 603 797 578 826 q 629 730 629 767 q 605 663 629 693 q 531 631 581 632 l 531 631 l 447 631 q 449 577 449 600 q 450 540 449 554 z m 160 51 l 160 51 q 90 71 117 47 q 56 126 63 94 q 63 191 49 158 q 117 239 76 224 l 117 239 q 164 248 132 244 q 235 253 196 251 q 319 256 275 256 q 403 257 364 257 q 476 257 443 257 q 525 257 508 257 l 525 257 q 581 243 558 257 q 615 208 603 229 q 626 161 626 186 q 616 114 626 136 q 583 77 606 92 q 528 63 561 63 l 528 63 q 343 61 435 61 q 160 51 251 61 z "},"×":{"ha":568,"x_min":49,"x_max":521,"o":"m 228 275 l 228 275 q 154 242 193 239 q 89 269 115 244 q 58 333 63 294 q 88 408 53 372 l 88 408 q 119 443 103 426 q 153 476 136 460 l 153 476 q 85 536 121 507 l 85 536 q 51 600 53 564 q 67 664 49 636 q 118 703 85 692 q 190 697 151 715 l 190 697 q 231 669 206 690 q 288 619 257 647 l 288 619 q 313 649 300 635 q 338 679 325 664 l 338 679 q 399 715 364 713 q 463 701 435 718 q 506 649 492 683 q 501 576 519 615 l 501 576 q 474 536 494 561 q 426 481 454 511 l 426 481 q 462 443 446 460 q 486 418 478 426 l 486 418 q 515 369 510 394 q 513 319 521 343 q 488 278 506 296 q 447 253 471 261 q 398 251 424 246 q 349 281 372 257 l 349 281 q 319 310 333 296 q 292 339 306 324 l 292 339 q 253 301 269 318 q 228 275 238 285 z "},"÷":{"ha":649,"x_min":33,"x_max":611,"o":"m 410 750 l 410 750 q 413 700 418 725 q 392 656 407 675 q 353 627 376 638 q 304 619 331 617 l 304 619 q 260 634 279 621 q 229 666 240 647 q 215 708 218 685 q 221 756 213 732 l 221 756 q 260 805 233 789 q 316 820 286 821 q 372 801 346 819 q 410 750 399 783 z m 144 376 l 144 376 q 74 396 101 372 q 40 451 47 419 q 47 516 33 483 q 101 564 61 549 l 101 564 q 149 573 117 569 q 220 578 181 576 q 304 581 260 581 q 388 582 349 582 q 460 582 428 582 q 510 582 493 582 l 510 582 q 565 568 543 582 q 599 533 588 554 q 611 486 611 511 q 601 439 611 461 q 568 402 590 417 q 513 388 546 388 l 513 388 q 328 385 419 385 q 144 376 236 386 z m 426 265 l 426 265 q 429 215 435 240 q 409 172 424 190 q 371 142 394 153 q 321 135 347 132 l 321 135 q 277 149 296 136 q 247 181 258 163 q 232 223 235 200 q 238 269 229 246 l 238 269 q 277 319 250 303 q 334 334 304 335 q 390 316 364 333 q 426 265 415 299 z "},"ƒ":{"ha":0,"x_min":-943,"x_max":1231,"o":"m -812 -381 l -812 -381 q -881 -379 -850 -393 q -927 -337 -911 -365 q -940 -275 -943 -310 q -908 -212 -937 -240 l -908 -212 q -854 -178 -885 -190 q -792 -157 -824 -165 l -792 -157 q -694 -132 -743 -142 q -597 -114 -646 -122 l -597 -114 q -373 -82 -485 -94 q -147 -62 -261 -69 l -147 -62 q -9 -57 -90 -58 q 166 -56 72 -56 q 359 -59 260 -56 q 552 -67 458 -62 q 726 -78 646 -71 q 864 -93 807 -85 l 864 -93 q 874 -95 869 -94 q 886 -99 879 -96 l 886 -99 q 925 -126 906 -104 q 947 -168 944 -149 l 947 -168 q 949 -197 950 -182 q 944 -224 949 -211 l 944 -224 q 901 -274 932 -256 q 839 -286 871 -293 l 839 -286 q 739 -274 789 -278 q 639 -267 689 -269 l 639 -267 q 523 -262 593 -264 q 370 -259 453 -261 q 199 -256 288 -257 q 28 -256 111 -256 q -124 -259 -54 -257 q -240 -265 -194 -261 l -240 -265 q -471 -290 -357 -275 q -699 -333 -585 -306 l -699 -333 q -771 -354 -739 -340 l -771 -354 q -776 -358 -774 -356 q -781 -364 -778 -361 l -781 -364 q -796 -374 -787 -369 q -812 -381 -804 -378 z m 1165 -311 l 1165 -311 q 1113 -315 1144 -321 q 1064 -292 1081 -308 l 1064 -292 q 1044 -269 1053 -281 q 1033 -243 1036 -258 l 1033 -243 q 1034 -185 1025 -212 q 1063 -141 1043 -158 q 1111 -119 1083 -124 q 1168 -128 1139 -114 l 1168 -128 q 1203 -155 1189 -137 q 1224 -193 1218 -172 q 1227 -235 1231 -214 q 1210 -276 1224 -257 l 1210 -276 q 1190 -296 1201 -287 q 1165 -311 1178 -304 z "},"‘":{"ha":299,"x_min":42,"x_max":260,"o":"m 229 775 l 229 775 q 235 713 243 742 q 206 665 226 683 q 155 642 185 646 q 96 660 125 639 l 96 660 q 54 713 67 681 q 42 783 42 746 q 55 858 43 821 q 83 928 67 896 l 83 928 q 120 967 97 954 q 168 979 143 979 q 216 965 193 979 q 250 924 239 951 l 250 924 q 254 871 260 900 q 232 821 249 842 l 232 821 q 226 799 226 814 q 229 775 226 783 z "},"’":{"ha":299,"x_min":39,"x_max":257,"o":"m 215 693 l 215 693 q 178 654 201 667 q 129 642 154 642 q 82 656 104 643 q 49 697 60 669 l 49 697 q 45 751 39 722 q 67 801 51 781 l 67 801 q 73 823 74 808 q 69 847 72 838 l 69 847 q 64 910 56 881 q 93 958 72 939 q 144 980 114 976 q 203 963 174 983 l 203 963 q 244 909 232 942 q 256 839 257 876 q 244 763 256 801 q 215 693 232 725 z "},"“":{"ha":549,"x_min":42,"x_max":510,"o":"m 229 774 l 229 774 q 235 711 243 740 q 206 663 226 682 q 155 641 185 644 q 96 658 125 638 l 96 658 q 54 711 67 679 q 42 781 42 743 q 55 856 43 818 q 83 926 67 894 l 83 926 q 120 965 97 953 q 168 978 143 978 q 216 964 193 978 q 250 922 239 950 l 250 922 q 254 869 260 899 q 232 819 249 840 l 232 819 q 226 797 226 813 q 229 774 226 782 z m 479 767 l 479 767 q 485 704 493 733 q 455 656 476 675 q 403 634 433 638 q 344 651 374 631 l 344 651 q 303 705 315 672 q 292 775 292 738 q 304 850 293 813 q 332 919 315 888 l 332 919 q 369 958 346 946 q 418 971 393 971 q 465 957 443 971 q 499 915 488 943 l 499 915 q 503 863 510 892 q 481 813 497 833 l 481 813 q 475 790 475 806 q 479 767 475 775 z "},"”":{"ha":547,"x_min":39,"x_max":506,"o":"m 215 692 l 215 692 q 178 653 201 665 q 129 641 154 640 q 82 655 104 642 q 49 696 60 668 l 49 696 q 45 749 39 719 q 67 800 51 779 l 67 800 q 73 822 74 807 q 69 846 72 836 l 69 846 q 64 908 56 879 q 93 956 72 938 q 144 978 114 975 q 203 961 174 982 l 203 961 q 244 908 232 940 q 256 838 257 875 q 244 762 256 800 q 215 692 232 724 z m 465 685 l 465 685 q 428 646 451 658 q 379 634 404 633 q 332 648 354 635 q 299 689 310 661 l 299 689 q 294 743 288 714 q 317 793 300 772 l 317 793 q 322 815 322 800 q 318 839 322 829 l 318 839 q 313 901 304 872 q 342 949 321 931 q 392 972 363 968 q 451 954 422 975 l 451 954 q 493 901 481 933 q 505 831 506 868 q 493 755 504 793 q 465 685 482 717 z "},"…":{"ha":864,"x_min":33,"x_max":829,"o":"m 194 -12 l 194 -12 q 137 -22 165 -25 q 85 -5 108 -19 q 48 35 63 10 q 35 92 33 60 l 35 92 q 43 131 35 113 q 65 165 51 150 q 96 189 78 179 q 135 200 114 199 l 135 200 q 143 201 139 200 q 151 201 147 201 l 151 201 q 212 188 186 204 q 251 146 238 172 q 263 88 264 119 q 243 28 263 57 l 243 28 q 194 -12 226 1 z m 489 -14 l 489 -14 q 431 -24 460 -26 q 378 -6 401 -21 q 341 33 356 8 q 328 90 326 58 l 328 90 q 336 130 328 111 q 358 164 344 149 q 389 188 371 179 q 428 199 407 197 l 428 199 q 436 200 432 199 q 444 201 440 201 l 444 201 q 505 187 479 203 q 544 144 531 171 q 556 87 557 118 q 536 26 556 56 l 536 26 q 515 3 528 14 q 489 -14 503 -7 z m 761 -21 l 761 -21 q 703 -31 732 -33 q 651 -13 674 -28 q 614 26 628 1 q 600 83 600 51 l 600 83 q 632 156 603 124 q 701 192 661 189 l 701 192 q 708 193 704 192 q 717 194 713 194 l 717 194 q 777 180 751 196 q 816 138 803 164 q 828 80 829 111 q 810 19 828 49 l 810 19 q 761 -21 790 -6 z "},"€":{"ha":943,"x_min":38,"x_max":915,"o":"m 650 49 l 650 49 q 546 40 599 38 q 444 58 493 42 l 444 58 q 360 101 400 74 q 290 164 321 128 l 290 164 q 231 252 254 204 q 193 353 207 300 l 193 353 q 155 353 174 353 q 117 354 136 354 l 117 354 q 77 370 94 356 q 53 407 60 385 l 53 407 q 60 459 46 435 q 103 490 75 483 l 103 490 q 114 492 108 492 q 126 492 119 492 l 126 492 q 152 491 139 492 q 179 492 165 490 l 179 492 q 180 510 179 501 q 182 529 181 519 l 182 529 q 144 529 163 529 q 108 531 126 529 l 108 531 q 67 546 85 532 q 44 582 50 560 l 44 582 q 51 634 38 610 q 93 665 65 658 l 93 665 q 117 667 104 669 l 117 667 l 203 667 q 238 760 215 715 q 288 844 260 804 l 288 844 q 414 965 338 918 q 578 1022 490 1011 l 578 1022 q 651 1026 614 1026 q 724 1018 688 1026 l 724 1018 q 764 992 743 1014 q 788 951 785 971 l 788 951 q 786 896 793 926 l 786 896 q 760 856 782 876 q 719 832 739 836 l 719 832 q 671 831 696 828 q 621 831 646 833 l 621 831 q 508 793 558 826 l 508 793 q 467 758 485 778 q 435 715 450 739 l 435 715 q 421 692 428 704 q 408 667 414 679 l 408 667 q 492 667 450 667 q 578 668 535 667 l 578 668 q 622 652 603 668 q 646 613 642 636 l 646 613 q 632 556 653 581 q 578 531 611 531 l 578 531 q 477 530 528 531 q 376 529 426 529 l 376 529 q 374 510 375 519 q 374 490 374 501 l 374 490 q 480 491 426 490 q 588 492 533 492 l 588 492 q 631 476 613 492 q 656 438 650 461 l 656 438 q 640 380 661 406 q 588 354 619 354 l 588 354 l 397 354 q 436 292 413 318 l 436 292 q 535 235 475 246 l 535 235 q 605 237 569 229 q 672 257 640 244 l 672 257 q 723 283 699 268 q 774 311 747 297 l 774 311 q 821 317 792 321 q 865 300 850 314 l 865 300 q 900 257 888 282 l 900 257 q 901 192 915 226 q 860 138 888 157 l 860 138 q 758 83 811 106 q 650 49 706 60 z "},"™":{"ha":983,"x_min":25,"x_max":933,"o":"m 861 533 l 861 533 q 833 533 850 529 q 806 544 815 536 l 806 544 q 798 553 801 549 q 792 563 794 558 l 792 563 q 779 597 782 578 q 776 635 776 615 l 776 635 q 780 728 776 682 q 789 821 783 775 l 789 821 q 738 755 763 789 q 685 689 713 721 l 685 689 q 658 668 672 674 l 658 668 q 628 663 644 661 q 600 674 611 665 l 600 674 q 570 705 582 686 q 547 743 558 724 l 547 743 q 546 688 546 715 q 544 633 546 661 l 544 633 q 547 622 544 626 q 547 611 549 617 l 547 611 q 545 600 546 606 q 542 589 544 594 l 542 589 q 525 565 535 575 l 525 565 q 511 556 519 558 q 496 550 503 553 l 496 550 q 465 551 483 546 q 440 568 447 557 l 440 568 q 425 597 429 582 l 425 597 q 425 617 424 607 q 426 636 426 626 l 426 636 q 432 785 429 711 q 451 931 435 858 l 451 931 q 462 960 454 946 q 481 985 469 974 l 481 985 q 525 998 500 1000 q 565 979 550 996 l 565 979 q 584 955 576 968 q 599 928 592 942 l 599 928 q 620 877 611 903 q 640 825 629 851 l 640 825 q 722 929 681 878 q 810 1028 763 981 l 810 1028 q 835 1046 821 1039 q 865 1053 850 1053 l 865 1053 q 907 1039 889 1053 l 907 1039 q 926 1013 919 1028 l 926 1013 q 929 971 933 992 l 929 971 q 906 813 917 892 q 894 653 896 733 l 894 653 q 894 636 894 644 q 896 621 894 628 l 896 621 q 898 614 896 618 q 901 608 900 610 l 901 608 q 902 579 906 597 q 889 553 899 561 l 889 553 q 861 533 878 540 z m 313 546 l 313 546 q 262 549 286 535 q 233 592 238 564 l 233 592 q 207 745 219 669 q 178 897 194 821 l 178 897 l 144 893 q 110 886 128 892 q 76 885 93 881 l 76 885 q 35 923 44 893 q 44 978 25 953 l 44 978 q 66 995 53 989 q 93 1006 79 1001 l 93 1006 q 120 1010 107 1008 q 146 1013 133 1011 l 146 1013 q 215 1018 181 1015 q 283 1022 249 1021 l 283 1022 q 346 1025 315 1025 q 407 1018 376 1025 l 407 1018 q 431 1002 418 1015 q 446 978 443 989 l 446 978 q 446 943 450 960 l 446 943 q 421 912 439 924 q 382 903 403 900 l 382 903 q 340 906 361 906 q 297 904 318 906 l 297 904 q 325 758 313 831 q 350 613 338 686 l 350 613 q 342 573 353 592 q 313 546 332 554 z "},"−":{"ha":643,"x_min":31,"x_max":608,"o":"m 142 376 l 142 376 q 72 396 99 372 q 38 451 44 419 q 44 516 31 483 q 99 564 58 549 l 99 564 q 146 573 114 569 q 217 578 178 576 q 301 581 257 581 q 385 582 346 582 q 458 582 425 582 q 507 582 490 582 l 507 582 q 563 568 540 582 q 597 533 585 554 q 608 486 608 511 q 598 439 608 461 q 565 402 588 417 q 510 388 543 388 l 510 388 q 325 385 417 385 q 142 376 233 386 z "},"`":{"ha":474,"x_min":35,"x_max":438,"o":"m 418 675 l 418 675 q 384 647 404 656 q 343 637 364 638 q 301 644 322 636 q 265 669 281 653 l 265 669 q 165 783 215 728 q 63 894 115 839 l 63 894 q 37 956 39 921 q 54 1018 35 990 l 54 1018 q 88 1048 68 1038 q 128 1059 107 1058 q 169 1052 149 1060 q 206 1028 189 1044 l 206 1028 q 309 913 258 969 q 411 799 360 857 l 411 799 q 436 738 435 772 q 418 675 438 703 z "},"|":{"ha":365,"x_min":78,"x_max":288,"o":"m 219 -131 l 219 -131 q 172 -140 196 -142 q 127 -125 147 -137 q 94 -92 107 -112 q 82 -44 82 -71 l 82 -44 q 80 212 78 83 q 85 468 82 340 q 91 724 89 596 q 90 981 93 853 l 90 981 q 110 1043 89 1015 q 165 1079 132 1071 l 165 1079 q 247 1060 211 1089 q 285 985 283 1032 l 285 985 q 285 729 288 857 q 280 474 283 601 q 274 218 276 346 q 276 -37 272 90 l 276 -37 q 263 -93 278 -68 q 219 -131 247 -118 z "},"":{"ha":4643,"x_min":61,"x_max":4571,"o":"m 215 -8 l 215 -8 q 179 1 197 -7 q 150 21 161 8 l 150 21 q 126 63 129 36 l 126 63 q 98 286 113 175 q 74 510 83 397 l 74 510 q 65 636 68 572 q 65 763 61 700 l 65 763 q 74 854 68 808 q 99 943 79 900 l 99 943 q 119 981 107 963 q 151 1011 132 1000 l 151 1011 q 231 1037 188 1035 q 311 1018 275 1039 l 311 1018 q 369 968 343 999 q 414 906 394 938 l 414 906 q 457 822 438 865 q 494 733 476 778 l 494 733 q 557 558 528 646 q 615 381 586 469 l 615 381 q 617 409 617 396 q 618 436 617 422 l 618 436 q 636 690 622 564 q 653 943 650 815 l 653 943 q 663 974 654 958 q 683 999 672 989 l 683 999 q 724 1017 700 1014 q 771 1018 749 1021 l 771 1018 q 826 991 803 1015 q 847 935 849 967 l 847 935 q 835 736 843 835 q 819 539 826 638 l 819 539 q 811 376 814 456 q 797 215 808 297 l 797 215 q 785 156 793 186 q 765 96 778 125 l 765 96 q 736 49 754 68 l 736 49 q 662 9 706 17 q 578 22 618 1 l 578 22 q 542 54 556 33 q 517 97 528 75 l 517 97 q 492 158 503 126 q 469 219 481 189 l 469 219 q 388 464 426 342 q 300 707 349 586 l 300 707 l 263 794 q 258 695 257 746 q 263 593 260 644 l 263 593 q 287 336 271 463 q 321 81 303 210 l 321 81 q 315 42 324 60 q 292 13 307 25 q 256 -4 276 1 q 215 -8 236 -10 z m 1182 -146 l 1182 -146 q 1086 -101 1132 -131 q 1001 -33 1040 -72 l 1001 -33 q 964 8 982 -14 q 932 56 946 31 l 932 56 q 926 111 917 81 q 960 160 936 142 l 960 160 q 998 176 978 172 q 1038 178 1018 181 q 1074 165 1057 175 q 1103 136 1090 154 l 1103 136 q 1151 81 1124 108 q 1210 35 1179 53 q 1274 15 1242 18 q 1338 31 1307 11 l 1338 31 q 1397 85 1372 50 q 1440 160 1422 121 l 1440 160 q 1476 256 1464 206 q 1494 358 1488 306 l 1494 358 q 1470 338 1483 347 q 1443 319 1457 328 l 1443 319 q 1353 280 1401 293 q 1256 267 1304 267 l 1256 267 q 1191 273 1224 267 q 1129 294 1158 279 l 1129 294 q 1058 340 1089 314 q 1006 404 1028 367 l 1006 404 q 963 526 971 458 q 969 656 954 593 l 969 656 q 1016 774 983 717 q 1093 878 1049 832 l 1093 878 q 1158 931 1122 907 q 1231 971 1193 954 l 1231 971 q 1305 992 1267 986 q 1383 997 1343 999 l 1383 997 q 1488 969 1439 993 q 1578 908 1538 944 l 1578 908 q 1592 894 1585 901 q 1607 879 1600 886 l 1607 879 q 1654 870 1631 881 q 1693 838 1678 860 l 1693 838 q 1715 776 1710 810 q 1721 710 1721 742 l 1721 710 q 1715 551 1722 631 q 1697 392 1708 471 l 1697 392 q 1663 217 1683 303 q 1601 53 1643 132 l 1601 53 q 1538 -39 1574 4 q 1457 -112 1501 -82 l 1457 -112 q 1321 -161 1392 -153 l 1321 -161 q 1250 -161 1286 -165 q 1182 -146 1214 -157 z m 1360 497 l 1360 497 q 1422 562 1390 522 q 1469 644 1454 601 q 1474 727 1485 688 q 1406 792 1463 767 l 1406 792 q 1352 801 1381 803 q 1299 788 1324 800 l 1299 788 q 1201 703 1240 760 q 1156 582 1161 647 l 1156 582 q 1157 549 1154 567 q 1167 517 1160 532 l 1167 517 q 1201 476 1178 489 q 1251 461 1224 463 q 1308 469 1279 460 q 1360 497 1336 478 z m 2396 86 l 2396 86 q 2343 157 2363 115 q 2313 242 2324 199 l 2313 242 q 2231 168 2276 201 q 2138 121 2186 135 l 2138 121 q 2013 119 2075 104 q 1900 175 1950 133 l 1900 175 q 1829 272 1856 214 l 1829 272 q 1808 340 1814 307 q 1801 408 1803 374 l 1801 408 q 1813 534 1799 472 q 1856 654 1828 596 l 1856 654 q 1957 803 1896 733 q 2097 913 2018 872 l 2097 913 q 2180 944 2136 933 q 2267 954 2224 954 l 2267 954 q 2386 932 2326 956 l 2386 932 q 2444 903 2417 921 q 2496 864 2472 885 l 2496 864 q 2521 869 2508 867 q 2546 869 2533 871 l 2546 869 q 2587 856 2568 867 q 2617 828 2606 844 q 2631 790 2628 811 q 2628 747 2635 769 l 2628 747 q 2592 658 2613 703 q 2547 572 2571 614 l 2547 572 q 2546 571 2546 571 l 2546 571 q 2522 488 2533 531 q 2499 403 2510 446 l 2499 403 q 2494 320 2492 363 q 2513 243 2496 278 l 2513 243 q 2519 240 2515 240 q 2526 236 2524 239 l 2526 236 q 2548 224 2538 232 q 2568 206 2558 215 l 2568 206 q 2590 153 2588 186 q 2572 101 2592 121 l 2572 101 q 2553 81 2563 90 q 2532 67 2544 72 l 2532 67 q 2462 55 2500 50 q 2396 86 2424 60 z m 2068 294 l 2068 294 q 2093 303 2081 296 q 2117 318 2106 310 l 2117 318 q 2168 367 2144 340 q 2213 422 2192 394 l 2213 422 q 2292 534 2253 479 q 2367 647 2331 589 l 2367 647 q 2382 686 2381 668 q 2376 719 2383 704 q 2354 744 2369 733 q 2319 764 2339 756 l 2319 764 q 2272 773 2299 774 q 2222 764 2246 772 l 2222 764 q 2152 724 2185 750 q 2094 667 2119 699 l 2094 667 q 2055 613 2074 640 q 2024 556 2036 586 l 2024 556 q 1999 463 2006 511 q 2000 368 1992 415 l 2000 368 q 2008 340 2003 354 q 2022 315 2014 326 q 2042 297 2031 303 q 2068 294 2053 292 z m 1751 -211 l 1751 -211 q 1808 -176 1778 -189 q 1869 -156 1838 -164 l 1869 -156 q 1967 -131 1918 -140 q 2064 -112 2015 -121 l 2064 -112 q 2288 -81 2176 -93 q 2515 -61 2400 -68 l 2515 -61 q 2653 -56 2572 -57 q 2828 -54 2735 -54 q 3022 -58 2922 -54 q 3215 -65 3121 -61 q 3389 -76 3308 -69 q 3526 -92 3469 -83 l 3526 -92 q 3538 -94 3533 -93 q 3549 -97 3542 -96 l 3549 -97 q 3588 -124 3568 -103 q 3610 -167 3607 -146 l 3610 -167 q 3612 -196 3613 -182 q 3607 -222 3611 -210 l 3607 -222 q 3565 -273 3594 -254 q 3501 -285 3535 -292 l 3501 -285 q 3401 -273 3451 -276 q 3301 -267 3350 -269 l 3301 -267 q 3185 -262 3256 -264 q 3033 -258 3115 -260 q 2861 -256 2950 -257 q 2690 -255 2772 -254 q 2537 -258 2607 -256 q 2421 -265 2467 -261 l 2421 -265 q 2190 -289 2304 -274 q 1963 -332 2076 -304 l 1963 -332 q 1925 -341 1943 -336 q 1889 -353 1907 -346 l 1889 -353 q 1884 -358 1886 -354 q 1879 -362 1882 -361 l 1879 -362 q 1849 -381 1865 -375 l 1849 -381 q 1778 -379 1810 -393 q 1732 -337 1747 -365 q 1719 -274 1717 -308 q 1751 -211 1722 -239 z m 3728 -289 l 3728 -289 q 3708 -268 3717 -279 q 3696 -243 3699 -257 l 3696 -243 q 3697 -185 3688 -212 q 3726 -140 3706 -157 q 3774 -117 3746 -122 q 3831 -126 3801 -112 l 3831 -126 q 3866 -153 3851 -136 q 3887 -192 3881 -171 q 3890 -234 3893 -212 q 3874 -275 3888 -256 l 3874 -275 q 3851 -294 3864 -286 q 3828 -310 3839 -303 l 3828 -310 q 3804 -315 3818 -314 q 3776 -312 3790 -315 q 3749 -303 3763 -310 q 3728 -289 3736 -297 z m 2892 61 l 2892 61 q 2806 131 2843 89 q 2746 221 2769 174 l 2746 221 q 2713 305 2725 261 q 2699 393 2701 349 l 2699 393 q 2701 501 2694 447 q 2724 606 2708 554 l 2724 606 q 2781 751 2746 681 q 2864 879 2815 821 l 2864 879 q 2949 956 2900 921 q 3053 1000 2997 990 l 3053 1000 q 3119 999 3085 1006 q 3179 975 3153 993 l 3179 975 q 3263 904 3226 947 q 3322 813 3300 861 l 3322 813 q 3328 779 3328 797 q 3326 744 3328 761 l 3326 744 q 3313 706 3324 725 q 3288 671 3303 686 l 3288 671 q 3270 660 3281 664 q 3250 653 3260 656 l 3250 653 q 3223 651 3238 649 q 3194 660 3208 653 q 3169 678 3181 667 q 3150 703 3157 690 l 3150 703 q 3135 726 3144 714 q 3116 749 3126 739 q 3094 763 3106 758 q 3071 765 3083 768 l 3071 765 q 3052 756 3061 763 q 3033 744 3043 750 l 3033 744 q 2990 699 3010 725 q 2956 646 2971 674 l 2956 646 q 2924 575 2938 611 q 2903 500 2910 539 l 2903 500 q 2894 447 2896 474 q 2896 396 2892 421 l 2896 396 q 2950 289 2907 335 l 2950 289 q 3001 260 2972 268 l 3001 260 q 3035 254 3017 254 q 3069 257 3054 254 l 3069 257 q 3115 277 3093 263 q 3154 313 3138 292 l 3154 313 q 3167 324 3161 319 q 3179 335 3172 329 l 3179 335 q 3217 349 3193 346 q 3256 344 3240 351 l 3256 344 q 3285 326 3271 338 q 3307 297 3299 315 l 3307 297 q 3325 241 3322 272 q 3315 181 3328 210 l 3315 181 q 3301 156 3310 168 q 3283 133 3292 143 l 3283 133 q 3183 58 3240 89 q 3067 21 3126 28 l 3067 21 q 2976 28 3021 17 q 2892 61 2931 39 z m 3467 233 l 3467 233 q 3408 398 3421 308 q 3415 576 3396 488 q 3481 741 3433 664 q 3601 868 3528 818 l 3601 868 q 3760 932 3676 919 q 3919 922 3843 944 q 4054 842 3994 899 q 4142 699 4114 785 l 4142 699 q 4163 553 4163 631 q 4146 401 4164 476 q 4092 258 4128 326 q 4003 142 4056 190 l 4003 142 q 3867 68 3942 88 q 3717 63 3792 49 q 3576 119 3642 76 q 3467 233 3510 163 z m 3854 274 l 3854 274 q 3906 326 3885 294 q 3941 393 3928 357 q 3961 469 3954 429 q 3968 546 3968 508 l 3968 546 q 3937 663 3968 617 q 3860 728 3906 710 q 3761 732 3814 746 q 3665 667 3708 718 l 3665 667 q 3620 585 3638 632 q 3599 490 3603 539 q 3606 395 3594 442 q 3646 315 3617 349 l 3646 315 q 3690 279 3664 294 q 3745 258 3717 264 q 3802 255 3774 251 q 3854 274 3831 258 z m 4239 31 l 4239 31 q 4228 110 4221 67 q 4268 179 4235 154 l 4268 179 q 4339 201 4301 201 q 4406 181 4376 200 q 4448 131 4435 163 q 4444 63 4461 100 l 4444 63 q 4403 10 4431 31 q 4344 -17 4375 -11 q 4285 -12 4314 -24 q 4239 31 4256 -1 z m 4283 403 l 4283 403 q 4327 705 4304 554 q 4369 1008 4350 856 l 4369 1008 q 4410 1078 4376 1058 q 4481 1093 4444 1099 q 4544 1059 4517 1088 q 4564 983 4571 1031 l 4564 983 q 4520 677 4542 828 q 4478 375 4499 526 l 4478 375 q 4455 322 4472 342 q 4415 295 4438 303 q 4367 291 4392 288 q 4322 308 4342 294 q 4290 346 4301 322 q 4283 403 4279 369 z "},"!":{"ha":446,"x_min":43,"x_max":393,"o":"m 300 374 l 300 374 q 259 305 293 325 q 189 290 225 285 q 126 324 153 294 q 107 401 100 353 l 107 401 q 151 703 129 553 q 193 1006 172 854 l 193 1006 q 234 1074 200 1054 q 304 1090 268 1094 q 367 1056 340 1085 q 386 979 393 1028 l 386 979 q 342 676 364 826 q 300 374 321 525 z m 268 63 l 268 63 q 226 8 253 29 q 168 -18 199 -12 q 108 -13 138 -24 q 63 29 79 -3 l 63 29 q 50 109 43 65 q 90 176 57 153 l 90 176 q 161 198 124 199 q 228 179 199 197 q 270 130 257 161 q 268 63 283 99 z "}}}
